<svg id="instagram" xmlns="http://www.w3.org/2000/svg" width="21.752" height="21.77" viewBox="0 0 21.752 21.77">
  <path id="Path_294" data-name="Path 294" d="M14.009,3.141c-4.455,0-8.685-.4-10.3,3.751-.667,1.713-.571,3.937-.571,7.122,0,2.795-.09,5.422.571,7.121,1.612,4.149,5.877,3.752,10.3,3.752,4.266,0,8.664.444,10.3-3.752.669-1.73.571-3.921.571-7.121,0-4.248.234-6.99-1.826-9.049C20.966,2.88,18.145,3.141,14,3.141ZM13.035,5.1c9.293-.015,10.475-1.048,9.823,13.3-.232,5.076-4.1,4.519-8.847,4.519-8.662,0-8.911-.248-8.911-8.914,0-8.766.687-8.9,7.936-8.911Zm6.777,1.8a1.3,1.3,0,1,0,1.3,1.3A1.3,1.3,0,0,0,19.813,6.905Zm-5.8,1.525a5.583,5.583,0,1,0,5.581,5.584A5.583,5.583,0,0,0,14.009,8.43Zm0,1.959c4.791,0,4.8,7.249,0,7.249S9.212,10.39,14.009,10.39Z" transform="translate(-3.133 -3.13)" fill="#acb1b8"/>
</svg>
