<svg id="linkedin" xmlns="http://www.w3.org/2000/svg" width="21.608" height="21.609" viewBox="0 0 21.608 21.609">
  <path id="Path_289" data-name="Path 289" d="M22.449,22.363h.005V14.437c0-3.877-.835-6.863-5.367-6.863A4.705,4.705,0,0,0,12.849,9.9h-.063V7.936h-4.3V22.362h4.475V15.219c0-1.881.357-3.7,2.686-3.7,2.295,0,2.329,2.146,2.329,3.82v7.024Z" transform="translate(-0.846 -0.755)" fill="#acb1b8"/>
  <path id="Path_290" data-name="Path 290" d="M.4,7.977h4.48V22.4H.4Z" transform="translate(-0.039 -0.795)" fill="#acb1b8"/>
  <path id="Path_291" data-name="Path 291" d="M2.595,0A2.607,2.607,0,1,0,5.19,2.595,2.6,2.6,0,0,0,2.595,0Z" transform="translate(0 0)" fill="#acb1b8"/>
</svg>
