<svg id="twitter" xmlns="http://www.w3.org/2000/svg" width="20.126" height="16.106" viewBox="0 0 20.126 16.106">
  <g id="Group_30" data-name="Group 30" transform="translate(0 0)">
    <path id="Path_16" data-name="Path 16" d="M112.878,130.595v.538a11.573,11.573,0,0,1-11.753,11.574,11.789,11.789,0,0,1-6.325-1.818c.333.026.64.051.973.051a8.248,8.248,0,0,0,5.121-1.741,4.126,4.126,0,0,1-3.866-2.817,3.908,3.908,0,0,0,.768.077,3.814,3.814,0,0,0,1.1-.154,4.092,4.092,0,0,1-3.252-3.995v-.051a3.96,3.96,0,0,0,1.844.512,4.015,4.015,0,0,1-1.28-5.428,11.83,11.83,0,0,0,8.5,4.251,3.769,3.769,0,0,1-.1-.922,4.093,4.093,0,0,1,4.123-4.071,4.2,4.2,0,0,1,3.022,1.28,7.687,7.687,0,0,0,2.612-1,4.169,4.169,0,0,1-1.818,2.253,8.181,8.181,0,0,0,2.381-.64A8.409,8.409,0,0,1,112.878,130.595Z" transform="translate(-94.8 -126.6)" fill="#acb1b8"/>
  </g>
</svg>
