<svg id="Component_103" data-name="Component 103" xmlns="http://www.w3.org/2000/svg" width="20.005" height="20.005" viewBox="0 0 20.005 20.005">
  <rect id="Rectangle_267" data-name="Rectangle 267" width="20.005" height="20.005" transform="translate(20.005 20.005) rotate(180)" fill="currentColor" opacity="0" />
  <g id="bank" transform="translate(0)">
    <g id="Group_2617" data-name="Group 2617">
      <path id="Path_998" data-name="Path 998" d="M19.686,7.459a1.174,1.174,0,0,0,1.172-1.172V4.768a1.167,1.167,0,0,0-.735-1.088L11.332.086a1.167,1.167,0,0,0-.875,0l-8.8,3.6A1.167,1.167,0,0,0,.926,4.769V6.287A1.174,1.174,0,0,0,2.1,7.459h.7v8.833H2.1A1.174,1.174,0,0,0,.926,17.464v1.368A1.174,1.174,0,0,0,2.1,20H19.686a1.174,1.174,0,0,0,1.172-1.172V17.464a1.174,1.174,0,0,0-1.172-1.172h-.7V7.459h.7Zm0,10.005c0,1.4,0,1.368,0,1.368H2.1V17.464ZM3.975,16.292V7.459H5.3v8.833Zm2.5,0V7.459H9.055v8.833Zm3.752,0V7.459h1.329v8.833Zm2.5,0V7.459h2.579v8.833Zm3.752,0V7.459H17.81v8.833ZM2.1,6.287c0-1.635,0-1.517,0-1.52l8.79-3.594,8.79,3.594c.006,0,0-.112,0,1.52H2.1Z" transform="translate(-0.926 0)" fill="currentColor" />
    </g>
    <g id="Group_2618" data-name="Group 2618" transform="translate(9.38 2.535)">
      <path id="Path_999" data-name="Path 999" d="M241.513,64.854a.586.586,0,0,0-.586.586v1.251a.586.586,0,1,0,1.172,0V65.44A.586.586,0,0,0,241.513,64.854Z" transform="translate(-240.927 -64.854)" fill="currentColor" />
    </g>
  </g>
</svg>
