<svg xmlns="http://www.w3.org/2000/svg" width="20" height="20" viewBox="0 0 20 20">
  <g id="Group_2834" data-name="Group 2834" transform="translate(-684.881 -167.881)">
    <g id="Component_100" data-name="Component 100" transform="translate(685 168)">
      <rect id="Rectangle_267" data-name="Rectangle 267" width="20" height="20" transform="translate(19.881 19.881) rotate(180)" fill="currentColor" opacity="0"/>
      <g id="location" transform="translate(0)">
        <g id="Group_2549" data-name="Group 2549">
          <path id="Path_993" data-name="Path 993" d="M9.886,7.526A2.316,2.316,0,1,0,7.57,5.211,2.318,2.318,0,0,0,9.886,7.526Zm0-3.474A1.158,1.158,0,1,1,8.728,5.211,1.159,1.159,0,0,1,9.886,4.053Zm-.475,9.594a.578.578,0,0,0,.95,0l3.8-5.462a5.211,5.211,0,1,0-8.556,0ZM9.886,1.158a4.053,4.053,0,0,1,3.328,6.366L9.886,12.3,6.558,7.524A4.053,4.053,0,0,1,9.886,1.158Zm9.835,17.8-1.339-3.169a.579.579,0,0,0-.266-.288l-4.489-2.315a.578.578,0,0,0-.588.032l-3.153,2.1-3.153-2.1a.582.582,0,0,0-.6-.028c-.028.015-2.815,1.5-4.468,2.3a.575.575,0,0,0-.28.3L.051,18.957a.579.579,0,0,0,.772.753l4.893-2.2L9.6,19.688a.578.578,0,0,0,.565,0l3.888-2.173,4.893,2.2a.579.579,0,0,0,.772-.753Zm-5.454-2.618a.584.584,0,0,0-.521.022l-3.86,2.158-3.86-2.158a.582.582,0,0,0-.283-.073.575.575,0,0,0-.239.051L1.692,18.046l.678-1.607c1.341-.66,3.275-1.671,4.01-2.066L9.565,16.5a.578.578,0,0,0,.642,0L13.4,14.371l4,2.06.682,1.615Z" transform="translate(-0.005)" fill="currentColor"/>
        </g>
      </g>
    </g>
  </g>
</svg>
