<svg id="Component_101" data-name="Component 101" xmlns="http://www.w3.org/2000/svg" width="20.016" height="20.016" viewBox="0 0 20.016 20.016">
  <rect id="Rectangle_267" data-name="Rectangle 267" width="20.016" height="20.016" transform="translate(20.016 20.016) rotate(180)" fill="currentColor" opacity="0"/>
  <g id="shop" transform="translate(0 1.459)">
    <g id="Group_2616" data-name="Group 2616">
      <path id="Path_994" data-name="Path 994" d="M19.957,47.63,16.4,40.33a.586.586,0,0,0-.527-.33H4.144a.586.586,0,0,0-.527.33L.06,47.63a.586.586,0,0,0,.458.839,7.511,7.511,0,0,0,1.476.03v7.8a.586.586,0,0,0,.586.586H17.436a.586.586,0,0,0,.586-.586V48.5a7.558,7.558,0,0,0,1.476-.03.586.586,0,0,0,.458-.839Zm-8.005-6.457,1.694,4.808c-1.684,1.834-5.608,1.814-7.274,0l1.694-4.808ZM1.5,47.347l3.009-6.175H6.821L5.186,45.816A4.8,4.8,0,0,1,1.5,47.347Zm5.574,8.368H3.167V53.956H7.076Zm4.691,0H8.249V51.024h3.518Zm5.082,0H12.94V53.956H16.85Zm0-2.932H12.94V50.438a.586.586,0,0,0-.586-.586H7.663a.586.586,0,0,0-.586.586v2.346H3.167V48.312A5.6,5.6,0,0,0,5.708,46.98a6.763,6.763,0,0,0,8.6,0,5.6,5.6,0,0,0,2.541,1.332Zm-2.019-6.968L13.2,41.173h2.311l3.009,6.175A4.8,4.8,0,0,1,14.831,45.816Z" transform="translate(0 -40)" fill="currentColor"/>
    </g>
  </g>
</svg>
