<svg id="Component_104" data-name="Component 104" xmlns="http://www.w3.org/2000/svg" width="20.044" height="20.044" viewBox="0 0 20.044 20.044">
  <rect id="Rectangle_267" data-name="Rectangle 267" width="20.044" height="20.044" transform="translate(20.044 20.044) rotate(180)" fill="currentColor" opacity="0"/>
  <g id="tax" transform="translate(0.585 0.538)">
    <path id="Path_1000" data-name="Path 1000" d="M16.23,0H2.486A2.489,2.489,0,0,0,0,2.486V12.721a1.317,1.317,0,0,0,1.316,1.316H3.8V17.4a1.317,1.317,0,0,0,1.316,1.316H17.4A1.317,1.317,0,0,0,18.716,17.4V2.486A2.489,2.489,0,0,0,16.23,0ZM1.17,12.721V2.486a1.316,1.316,0,0,1,2.632,0V12.867H1.316A.146.146,0,0,1,1.17,12.721ZM17.546,17.4a.146.146,0,0,1-.146.146H5.118a.146.146,0,0,1-.146-.146V2.486A2.47,2.47,0,0,0,4.593,1.17H16.23a1.317,1.317,0,0,1,1.316,1.316Z" fill="currentColor"/>
    <path id="Path_1001" data-name="Path 1001" d="M244.679,126.726a2.342,2.342,0,0,0-2.339-2.339,1.17,1.17,0,1,1,1.153-1.366.585.585,0,1,0,1.154-.193,2.329,2.329,0,0,0-1.722-1.877v-.366a.585.585,0,0,0-1.17,0v.366a2.34,2.34,0,0,0,.585,4.6,1.17,1.17,0,1,1-1.153,1.366.585.585,0,1,0-1.154.193,2.329,2.329,0,0,0,1.722,1.877v.366a.585.585,0,0,0,1.17,0v-.366A2.344,2.344,0,0,0,244.679,126.726Z" transform="translate(-231.227 -115.613)" fill="currentColor"/>
  </g>
</svg>
