<?xml version="1.0" encoding="utf-8"?>
<!-- Generator: Adobe Illustrator 23.0.5, SVG Export Plug-In . SVG Version: 6.00 Build 0)  -->
<svg version="1.1" id="Layer_1" xmlns="http://www.w3.org/2000/svg" xmlns:xlink="http://www.w3.org/1999/xlink" x="0px" y="0px"
	 viewBox="0 0 445 105" style="enable-background:new 0 0 445 105;" xml:space="preserve">
<style type="text/css">
	.st0{clip-path:url(#SVGID_2_);fill-rule:evenodd;clip-rule:evenodd;fill:#F1B630;}
	.st1{clip-path:url(#SVGID_2_);fill:#F1B630;}
	.st2{clip-path:url(#SVGID_4_);fill:url(#SVGID_5_);}
	.st3{clip-path:url(#SVGID_7_);fill:#F1B630;}
</style>
<g>
	<defs>
		<rect id="SVGID_1_" x="-197" y="-248.28" width="841.89" height="595.28"/>
	</defs>
	<clipPath id="SVGID_2_">
		<use xlink:href="#SVGID_1_"  style="overflow:visible;"/>
	</clipPath>
	<path class="st0" d="M403.64,25.73H377.7c-9.27,0-17.29,7.88-17.29,16.94v11.3c0,9.06,8.02,16.94,17.29,16.94h10.57
		c1.35,0,3.31-0.57,4.11-1.63l2.62-3.08v1.89c0,1.24,1.6,2.88,2.88,2.88l5.76-0.06c1.28,0,2.88-1.58,2.88-2.82V28.56
		C406.53,27.31,404.92,25.73,403.64,25.73 M395,59.62H377.7c-2.98,0-5.76-2.73-5.76-5.65v-11.3c0-2.92,2.78-5.65,5.76-5.65H395
		V59.62z"/>
	<path class="st0" d="M234,26.07h-17.3V12.84c0-1.25-1.61-2.83-2.88-2.83h-5.76l0.01,0c-1.28,0-2.88,1.58-2.88,2.82v55.6
		c0,1.24,1.61,2.82,2.88,2.82h5.76c1.28,0,2.88-1.58,2.88-2.83v-1.88l3.02,3.17c0.82,0.89,2.4,1.54,3.7,1.54H234
		c9.28,0,17.3-7.88,17.3-16.95V43.1C251.3,34.04,243.28,26.07,234,26.07 M239.77,54.31c0,2.92-2.78,5.65-5.76,5.65h-17.29V37.37H234
		c2.98,0,5.76,2.73,5.76,5.65V54.31z"/>
	<path class="st0" d="M177.05,9.96h-5.76c-1.28,0-2.88,1.58-2.88,2.82v55.68c0,1.25,1.61,2.83,2.88,2.83h5.76
		c1.27,0,2.88-1.58,2.88-2.82V12.78C179.93,11.54,178.32,9.96,177.05,9.96"/>
	<path class="st0" d="M301.37,26.07h-25.94c-9.27,0-17.29,7.88-17.29,16.94v11.3c0,9.06,8.02,16.94,17.29,16.94H286
		c1.35,0,3.31-0.57,4.11-1.63l2.62-3.08v1.89c0,1.24,1.61,2.88,2.88,2.88l5.76-0.06c1.27,0,2.88-1.58,2.88-2.82V28.89
		C304.25,27.65,302.65,26.07,301.37,26.07 M292.73,59.96h-17.29c-2.98,0-5.76-2.73-5.76-5.65v-11.3c0-2.92,2.78-5.65,5.76-5.65
		h17.29V59.96z"/>
	<path class="st1" d="M441.84,28.47l-16.88,22.15V68.9c0,1.33-1.08,2.42-2.41,2.42h-6.77c-1.33,0-2.41-1.09-2.41-2.42V28.27
		c0-1.34,1.08-2.42,2.41-2.42h6.77c1.33,0,2.41,1.09,2.41,2.42v3.22l3.54-4.65c0.45-0.6,1.17-0.95,1.92-0.95h10.13
		C441.89,25.89,442.65,27.41,441.84,28.47"/>
	<path class="st0" d="M158.64,25.79H132.7c-9.27,0-17.29,7.88-17.29,16.94v11.29c0,9.07,8.02,16.95,17.29,16.95h10.57
		c1.35,0,3.31-0.57,4.11-1.63l2.61-3.08v1.88c0,1.24,1.61,2.88,2.88,2.88l5.76-0.06c1.27,0,2.88-1.58,2.88-2.82V28.62
		C161.52,27.37,159.92,25.79,158.64,25.79 M149.99,59.68H132.7c-2.98,0-5.76-2.73-5.76-5.65V42.74c0-2.92,2.78-5.65,5.76-5.65h17.29
		V59.68z"/>
	<path class="st1" d="M324.03,71.34c-6.94,0-12.79-5.47-12.93-12.41c-0.12-5.92,3.84-11.11,9.56-12.56l23.28-6.2
		c0.71-0.18,1.19-0.88,1.06-1.63c-0.12-0.69-0.76-1.17-1.47-1.17h-25.92c-1.26,0-2.28-1.02-2.28-2.28v-6.69
		c0-1.26,1.02-2.28,2.28-2.28h25.73c6.94,0,12.79,5.47,12.93,12.41c0.12,5.92-3.84,11.11-9.56,12.56l-23.28,6.2
		c-0.71,0.18-1.18,0.88-1.05,1.64c0.12,0.69,0.76,1.17,1.47,1.17h27.68c1.26,0,2.28,1.02,2.28,2.28v6.69c0,1.26-1.02,2.28-2.28,2.28
		H324.03"/>
	<path class="st1" d="M186.78,28.26V68.9c0,1.33,1.08,2.41,2.41,2.41h6.76c1.33,0,2.42-1.08,2.42-2.41V28.26
		c0-1.33-1.08-2.41-2.42-2.41h-6.76C187.86,25.85,186.78,26.93,186.78,28.26"/>
	<path class="st1" d="M186.78,12.37v5.6c0,1.33,1.08,2.41,2.41,2.41h6.76c1.33,0,2.42-1.08,2.42-2.41v-5.6
		c0-1.33-1.08-2.41-2.42-2.41h-6.76C187.86,9.96,186.78,11.04,186.78,12.37"/>
</g>
<g>
	<defs>
		<path id="SVGID_3_" d="M39.06,4.85c-18.41,0-33.34,14.93-33.34,33.34v52.25c0,2.58,2.09,4.67,4.67,4.67l80.97-0.02
			c2.57-0.01,4.65-2.1,4.65-4.67V38.19C96,19.78,81.08,4.85,62.66,4.85H39.06z"/>
	</defs>
	<clipPath id="SVGID_4_">
		<use xlink:href="#SVGID_3_"  style="overflow:visible;"/>
	</clipPath>
	
		<linearGradient id="SVGID_5_" gradientUnits="userSpaceOnUse" x1="-197" y1="347.0657" x2="-196" y2="347.0657" gradientTransform="matrix(63.8401 -63.8401 -63.8401 -63.8401 34746.6875 9667.5723)">
		<stop  offset="0" style="stop-color:#232A54"/>
		<stop  offset="0.4593" style="stop-color:#232A54"/>
		<stop  offset="0.9976" style="stop-color:#232A40"/>
		<stop  offset="1" style="stop-color:#232A40"/>
	</linearGradient>
	<polygon class="st2" points="-39.41,49.98 50.86,-40.29 141.13,49.98 50.86,140.25 	"/>
</g>
<g>
	<defs>
		<rect id="SVGID_6_" x="-197" y="-248.28" width="841.89" height="595.28"/>
	</defs>
	<clipPath id="SVGID_7_">
		<use xlink:href="#SVGID_6_"  style="overflow:visible;"/>
	</clipPath>
	<path class="st3" d="M50.86,61.46c-9.89,0-19.24-4.44-25.5-11.99c-0.94-1.13-0.7-2.82,0.51-3.66l4.2-2.94
		c1.07-0.75,2.52-0.54,3.38,0.45c4.34,5.05,10.7,8,17.42,8c6.72,0,13.08-2.95,17.42-8c0.85-0.99,2.3-1.2,3.38-0.45l4.2,2.94
		c1.2,0.84,1.44,2.54,0.51,3.66C70.1,57.02,60.75,61.46,50.86,61.46"/>
</g>
</svg>
