<svg id="calender_min" data-name="calender min" xmlns="http://www.w3.org/2000/svg" width="16" height="16" viewBox="0 0 16 16">
  <path id="Path_900" data-name="Path 900" d="M0,0H16V16H0Z" transform="translate(0 16) rotate(-90)" fill="#fff" opacity="0"/>
  <g id="calendar" transform="translate(0.152 0.762)">
    <path id="Path_677" data-name="Path 677" d="M13.866,92.834H1.887A1.889,1.889,0,0,1,0,90.947V82.123a1.889,1.889,0,0,1,1.887-1.887H13.866a1.889,1.889,0,0,1,1.887,1.887v8.824A1.889,1.889,0,0,1,13.866,92.834ZM1.887,81.15a.974.974,0,0,0-.973.973v8.824a.974.974,0,0,0,.973.973H13.866a.974.974,0,0,0,.973-.973V82.123a.974.974,0,0,0-.973-.973Z" transform="translate(0 -78.454)" fill="#172840"/>
    <path id="Path_678" data-name="Path 678" d="M71.41,40.259h-.531a.619.619,0,0,1-.619-.619V37.782a.619.619,0,0,1,.619-.619h.531a.619.619,0,0,1,.619.619V39.64A.619.619,0,0,1,71.41,40.259Z" transform="translate(-68.098 -36.706)" fill="#f0b440"/>
    <path id="Path_679" data-name="Path 679" d="M57.012,26.318h-.531A1.078,1.078,0,0,1,55.4,25.242V23.384a1.078,1.078,0,0,1,1.076-1.076h.531a1.078,1.078,0,0,1,1.076,1.076v1.858A1.078,1.078,0,0,1,57.012,26.318Zm-.531-3.1a.162.162,0,0,0-.162.162v1.858a.162.162,0,0,0,.162.162h.531a.162.162,0,0,0,.162-.162V23.384a.162.162,0,0,0-.162-.162Z" transform="translate(-53.7 -22.308)" fill="#172840"/>
    <path id="Path_680" data-name="Path 680" d="M385.384,40.259h-.531a.619.619,0,0,1-.619-.619V37.782a.619.619,0,0,1,.619-.619h.531a.619.619,0,0,1,.619.619V39.64A.619.619,0,0,1,385.384,40.259Z" transform="translate(-372.412 -36.706)" fill="#f0b440"/>
    <path id="Path_681" data-name="Path 681" d="M370.987,26.318h-.531a1.078,1.078,0,0,1-1.076-1.076V23.384a1.077,1.077,0,0,1,1.076-1.076h.531a1.077,1.077,0,0,1,1.076,1.076v1.858A1.077,1.077,0,0,1,370.987,26.318Zm-.531-3.1a.162.162,0,0,0-.162.162v1.858a.162.162,0,0,0,.162.162h.531a.162.162,0,0,0,.162-.162V23.384a.162.162,0,0,0-.162-.162Z" transform="translate(-358.015 -22.308)" fill="#172840"/>
    <path id="Path_682" data-name="Path 682" d="M228.4,40.259h-.531a.619.619,0,0,1-.619-.619V37.782a.619.619,0,0,1,.619-.619h.531a.619.619,0,0,1,.619.619V39.64A.619.619,0,0,1,228.4,40.259Z" transform="translate(-220.255 -36.706)" fill="#f0b440"/>
    <path id="Path_683" data-name="Path 683" d="M214,26.318h-.531a1.078,1.078,0,0,1-1.076-1.076V23.384a1.078,1.078,0,0,1,1.076-1.076H214a1.078,1.078,0,0,1,1.076,1.076v1.858A1.077,1.077,0,0,1,214,26.318Zm-.531-3.1a.162.162,0,0,0-.162.162v1.858a.162.162,0,0,0,.162.162H214a.162.162,0,0,0,.162-.162V23.384a.162.162,0,0,0-.162-.162Z" transform="translate(-205.857 -22.308)" fill="#172840"/>
    <path id="Path_684" data-name="Path 684" d="M29.695,98.278V96.52a1.43,1.43,0,0,0-1.43-1.43H16.286a1.43,1.43,0,0,0-1.43,1.43v1.759Z" transform="translate(-14.399 -92.851)" fill="#f0b440"/>
    <g id="Group_1801" data-name="Group 1801" transform="translate(0 1.782)">
      <path id="Path_685" data-name="Path 685" d="M15.753,84.337H0V82.122a1.889,1.889,0,0,1,1.887-1.887H13.866a1.889,1.889,0,0,1,1.887,1.887v2.216ZM.914,83.423H14.839v-1.3a.974.974,0,0,0-.973-.973H1.887a.974.974,0,0,0-.973.973Z" transform="translate(0 -80.235)" fill="#172840"/>
      <path id="Path_686" data-name="Path 686" d="M65.279,249.951h-.914V248.62a.7.7,0,0,1,.7-.7H66.65v.914H65.279Z" transform="translate(-62.385 -242.758)" fill="#172840"/>
      <path id="Path_687" data-name="Path 687" d="M168.771,249.951h-.914V248.62a.7.7,0,0,1,.7-.7h1.582v.914h-1.371v1.12Z" transform="translate(-162.692 -242.758)" fill="#172840"/>
      <path id="Path_688" data-name="Path 688" d="M272.264,249.951h-.914V248.62a.7.7,0,0,1,.7-.7h1.582v.914h-1.371v1.12Z" transform="translate(-263.001 -242.758)" fill="#172840"/>
      <path id="Path_689" data-name="Path 689" d="M375.757,249.951h-.914V248.62a.7.7,0,0,1,.7-.7h1.582v.914h-1.371Z" transform="translate(-363.31 -242.758)" fill="#172840"/>
      <path id="Path_690" data-name="Path 690" d="M65.279,356.91h-.914v-1.331a.7.7,0,0,1,.7-.7H66.65v.914H65.279Z" transform="translate(-62.385 -346.426)" fill="#172840"/>
      <path id="Path_691" data-name="Path 691" d="M168.771,356.91h-.914v-1.331a.7.7,0,0,1,.7-.7h1.582v.914h-1.371v1.12Z" transform="translate(-162.692 -346.426)" fill="#172840"/>
      <path id="Path_692" data-name="Path 692" d="M272.264,356.91h-.914v-1.331a.7.7,0,0,1,.7-.7h1.582v.914h-1.371v1.12Z" transform="translate(-263.001 -346.426)" fill="#172840"/>
      <path id="Path_693" data-name="Path 693" d="M375.757,356.91h-.914v-1.331a.7.7,0,0,1,.7-.7h1.582v.914h-1.371Z" transform="translate(-363.31 -346.426)" fill="#172840"/>
    </g>
  </g>
</svg>
