<svg id="cancel" xmlns="http://www.w3.org/2000/svg" width="24" height="24" viewBox="0 0 24 24">
  <rect id="Rectangle_265" data-name="Rectangle 265" width="24" height="24" fill="#fff" opacity="0"/>
  <g id="cancel-2" data-name="cancel" transform="translate(2.994 3.031)">
    <path id="Path_931" data-name="Path 931" d="M2.953,17.975A2.933,2.933,0,0,1,.878,12.966L7.942,5.9a.572.572,0,0,1,.809.809L1.687,13.776a1.79,1.79,0,0,0,2.532,2.532L16.286,4.24a1.79,1.79,0,1,0-2.532-2.532L11.937,3.526a.572.572,0,1,1-.809-.809L12.945.9A2.935,2.935,0,0,1,17.1,5.05L5.028,17.117A2.926,2.926,0,0,1,2.953,17.975Z" transform="translate(0 -0.039)" fill="#172840"/>
    <path id="Path_932" data-name="Path 932" d="M32.264,32.284h0a2.341,2.341,0,0,1-3.31,0L17,20.33a2.341,2.341,0,0,1,0-3.31h0a2.341,2.341,0,0,1,3.31,0L32.264,28.974A2.341,2.341,0,0,1,32.264,32.284Z" transform="translate(-15.645 -15.683)" fill="#f0b440"/>
    <path id="Path_933" data-name="Path 933" d="M15.021,17.937a2.916,2.916,0,0,1-2.075-.86L.878,5.01A2.935,2.935,0,0,1,5.029.86L17.1,12.927a2.935,2.935,0,0,1-2.075,5.01ZM2.953,1.144A1.79,1.79,0,0,0,1.687,4.2L13.755,16.268a1.79,1.79,0,0,0,2.532-2.532L4.219,1.669A1.778,1.778,0,0,0,2.953,1.144Z" transform="translate(0)" fill="#172840"/>
  </g>
</svg>
