<svg id="cart" xmlns="http://www.w3.org/2000/svg" width="16" height="16" viewBox="0 0 16 16">
  <rect id="Rectangle_260" data-name="Rectangle 260" width="16" height="16" transform="translate(0 16) rotate(-90)" fill="#fff" opacity="0"/>
  <g id="shopping-cart_1_" data-name="shopping-cart (1)" transform="translate(1.077 0.769)">
    <g id="Group_2011" data-name="Group 2011" transform="translate(0 0)">
      <g id="Group_2010" data-name="Group 2010">
        <circle id="Ellipse_28" data-name="Ellipse 28" cx="1.699" cy="1.699" r="1.699" transform="translate(3.832 10.975)" fill="#acb1b8"/>
        <path id="Path_861" data-name="Path 861" d="M268.2,324.1h0a1.7,1.7,0,1,0,1.7,1.7A1.7,1.7,0,0,0,268.2,324.1Z" transform="translate(-257.707 -313.123)" fill="#acb1b8"/>
        <path id="Path_862" data-name="Path 862" d="M20.3,9.24H11.438l-.173-1.006h7.282a.52.52,0,0,0,.485-.329l1.734-4.369a.52.52,0,0,0-.485-.711H10.363L9.947.433A.52.52,0,0,0,9.427,0H7.433a.52.52,0,1,0,0,1.04h1.56l1.491,8.807a.52.52,0,0,0,.52.433H20.3a.52.52,0,0,0,0-1.04Z" transform="translate(-6.913 0.001)" fill="#acb1b8"/>
      </g>
    </g>
  </g>
</svg>
