<svg xmlns="http://www.w3.org/2000/svg" width="38" height="23" viewBox="0 0 38 23">
  <g id="Group_3084" data-name="Group 3084" transform="translate(263 -621)">
    <g id="Group_2528" data-name="Group 2528" transform="translate(-263 621)">
      <g id="Group_2757" data-name="Group 2757">
        <rect id="Rectangle_291" data-name="Rectangle 291" width="38" height="23" rx="3" fill="#172840"/>
      </g>
    </g>
    <path id="Path_961" data-name="Path 961" d="M5.446.168a4.3,4.3,0,0,0,3.906-2.3L7.644-2.954A2.5,2.5,0,0,1,5.446-1.6,2.908,2.908,0,0,1,2.52-4.662,2.908,2.908,0,0,1,5.446-7.728a2.531,2.531,0,0,1,2.2,1.358l1.708-.84A4.275,4.275,0,0,0,5.446-9.492a4.745,4.745,0,0,0-4.97,4.83A4.745,4.745,0,0,0,5.446.168ZM16.338,0V-4.368S14.924-6.93,13.384-6.93A4.436,4.436,0,0,0,10.43-5.866l.672,1.19a2.845,2.845,0,0,1,1.974-.8c.9,0,1.484.448,1.484,1.134v.91a2.782,2.782,0,0,0-2.142-.826,2.164,2.164,0,0,0-2.352,2.184A2.253,2.253,0,0,0,12.418.168,2.8,2.8,0,0,0,14.56-.7V0ZM13.132-1.036c-.7,0-1.274-.364-1.274-.994,0-.658.574-1.022,1.274-1.022a1.778,1.778,0,0,1,1.428.588v.84A1.778,1.778,0,0,1,13.132-1.036Zm7.406,1.2c1.876,0,2.926-.938,2.926-2.17,0-2.73-4-1.89-4-2.9,0-.378.42-.672,1.064-.672a2.853,2.853,0,0,1,2,.784l.714-1.218a4.319,4.319,0,0,0-2.73-.924c-1.778,0-2.772.994-2.772,2.128,0,2.66,4.018,1.75,4.018,2.87,0,.42-.364.728-1.134.728a3.87,3.87,0,0,1-2.338-.924l-.77,1.246A4.552,4.552,0,0,0,20.538.168ZM31.136,0V-4.8a1.947,1.947,0,0,0-2.2-2.128,3.129,3.129,0,0,0-2.38,1.05V-9.338H24.78V0h1.778V-4.55a1.97,1.97,0,0,1,1.54-.8c.77,0,1.26.294,1.26,1.232V0Z" transform="translate(-259.476 637.492)" fill="#fff"/>
  </g>
</svg>
