<svg id="clock" xmlns="http://www.w3.org/2000/svg" width="13.094" height="13.094" viewBox="0 0 13.094 13.094">
  <path id="Path_1054" data-name="Path 1054" d="M63.759,60.082a.7.7,0,0,0-.7.7v2.337H60.72a.7.7,0,1,0,0,1.4h3.039a.7.7,0,0,0,.7-.7V60.783A.7.7,0,0,0,63.759,60.082Z" transform="translate(-57.212 -57.272)" fill="#bebebe"/>
  <path id="Path_1055" data-name="Path 1055" d="M6.547,0a6.547,6.547,0,1,0,6.547,6.547A6.554,6.554,0,0,0,6.547,0Zm0,11.691a5.144,5.144,0,1,1,5.144-5.144A5.15,5.15,0,0,1,6.547,11.691Z" fill="#bebebe"/>
</svg>
