<svg id="close_big" data-name="close big" xmlns="http://www.w3.org/2000/svg" width="24" height="24" viewBox="0 0 24 24">
  <path id="Path_900" data-name="Path 900" d="M0,0H24V24H0Z" transform="translate(0 24) rotate(-90)" fill="#fff" opacity="0"/>
  <g id="close" transform="translate(4.158 4.156)">
    <path id="Path_537" data-name="Path 537" d="M15.637,3.19l-4.9,4.9,4.9,4.9A1.867,1.867,0,1,1,13,15.64l-4.9-4.9-4.9,4.9A1.867,1.867,0,0,1,.547,13l4.9-4.9-4.9-4.9A1.867,1.867,0,0,1,3.187.548l4.9,4.9L13,.548A1.867,1.867,0,0,1,15.637,3.19Z" transform="translate(0 -0.002)" fill="#acb1b8"/>
  </g>
</svg>
