<svg id="close" xmlns="http://www.w3.org/2000/svg" width="21.476" height="21.476" viewBox="0 0 21.476 21.476">
  <path id="Path_1064" data-name="Path 1064" d="M10.738,21.476A10.738,10.738,0,1,1,21.476,10.738,10.75,10.75,0,0,1,10.738,21.476Zm0-19.942a9.2,9.2,0,1,0,9.2,9.2A9.214,9.214,0,0,0,10.738,1.534Zm0,0" fill="#acb1b8"/>
  <path id="Path_1065" data-name="Path 1065" d="M154.724,155.492a.764.764,0,0,1-.542-.225l-7.67-7.67a.767.767,0,0,1,1.085-1.085l7.67,7.67a.767.767,0,0,1-.542,1.309Zm0,0" transform="translate(-140.151 -140.152)" fill="#acb1b8"/>
  <path id="Path_1066" data-name="Path 1066" d="M147.053,155.491a.767.767,0,0,1-.542-1.309l7.67-7.67a.767.767,0,1,1,1.085,1.084l-7.67,7.67A.764.764,0,0,1,147.053,155.491Zm0,0" transform="translate(-140.15 -140.151)" fill="#acb1b8"/>
</svg>
