<svg xmlns="http://www.w3.org/2000/svg" width="34" height="34" viewBox="0 0 34 34">
  <g id="Group_3103" data-name="Group 3103" transform="translate(-147 -376)">
    <g id="Ellipse_36" data-name="Ellipse 36" transform="translate(147 376)" fill="#fff" stroke="#d1d1d1" stroke-width="1">
      <circle cx="17" cy="17" r="17" stroke="none"/>
      <circle cx="17" cy="17" r="16.5" fill="none"/>
    </g>
    <g id="discount" transform="translate(145.614 384.695)">
      <g id="Group_3096" data-name="Group 3096" transform="translate(10.359 -0.002)">
        <g id="Group_3095" data-name="Group 3095" transform="translate(0 0)">
          <path id="Path_1085" data-name="Path 1085" d="M25.536,8.523a.487.487,0,0,1,0-.43l.62-1.268a1.443,1.443,0,0,0-.622-1.916l-1.247-.661a.487.487,0,0,1-.253-.348l-.244-1.39a1.443,1.443,0,0,0-1.63-1.184l-1.4.2a.487.487,0,0,1-.409-.133L19.339.408a1.443,1.443,0,0,0-2.014,0l-1.014.981a.487.487,0,0,1-.409.133l-1.4-.2a1.443,1.443,0,0,0-1.63,1.184L12.63,3.9a.487.487,0,0,1-.253.348l-1.247.661a1.443,1.443,0,0,0-.622,1.916l.62,1.268a.487.487,0,0,1,0,.43l-.62,1.268a1.443,1.443,0,0,0,.622,1.916l1.247.661a.487.487,0,0,1,.253.348l.244,1.39A1.442,1.442,0,0,0,14.3,15.3a1.482,1.482,0,0,0,.208-.015l1.4-.2a.487.487,0,0,1,.409.133l1.014.981a1.443,1.443,0,0,0,2.014,0l1.014-.981a.487.487,0,0,1,.409-.133l1.4.2a1.442,1.442,0,0,0,1.63-1.184l.244-1.39a.487.487,0,0,1,.253-.348l1.247-.661a1.443,1.443,0,0,0,.622-1.916Zm-.452,2.337-1.247.661a1.439,1.439,0,0,0-.748,1.029l-.244,1.39a.488.488,0,0,1-.551.4l-1.4-.2a1.439,1.439,0,0,0-1.21.393l-1.014.981a.488.488,0,0,1-.682,0l-1.014-.981a1.438,1.438,0,0,0-1-.408,1.471,1.471,0,0,0-.206.015l-1.4.2a.488.488,0,0,1-.551-.4l-.244-1.39a1.439,1.439,0,0,0-.748-1.029L11.58,10.86a.488.488,0,0,1-.211-.648l.62-1.268a1.439,1.439,0,0,0,0-1.272L11.369,6.4a.488.488,0,0,1,.211-.648l1.247-.661a1.439,1.439,0,0,0,.748-1.029l.244-1.39a.488.488,0,0,1,.551-.4l1.4.2a1.439,1.439,0,0,0,1.21-.393L17.991,1.1a.488.488,0,0,1,.682,0l1.014.981a1.439,1.439,0,0,0,1.21.393l1.4-.2a.488.488,0,0,1,.551.4l.244,1.39a1.439,1.439,0,0,0,.748,1.029l1.247.661a.488.488,0,0,1,.211.648l-.62,1.268a1.439,1.439,0,0,0,0,1.272l.62,1.268A.488.488,0,0,1,25.084,10.86Z" transform="translate(-10.359 0.002)" fill="#172840" stroke="#172840" stroke-width="0.2"/>
        </g>
      </g>
      <g id="Group_3098" data-name="Group 3098" transform="translate(14.69 4.665)">
        <g id="Group_3097" data-name="Group 3097" transform="translate(0)">
          <path id="Path_1086" data-name="Path 1086" d="M150.935,143.932a.479.479,0,0,0-.678,0l-6.326,6.326a.479.479,0,1,0,.678.678l6.326-6.326A.479.479,0,0,0,150.935,143.932Z" transform="translate(-143.791 -143.791)" fill="#172840" stroke="#172840" stroke-width="0.2"/>
        </g>
      </g>
      <g id="Group_3100" data-name="Group 3100" transform="translate(14.658 3.994)">
        <g id="Group_3099" data-name="Group 3099">
          <path id="Path_1087" data-name="Path 1087" d="M144.559,123.116a1.757,1.757,0,1,0,1.757,1.757A1.759,1.759,0,0,0,144.559,123.116Zm0,2.556a.8.8,0,1,1,.8-.8A.8.8,0,0,1,144.559,125.672Z" transform="translate(-142.802 -123.116)" fill="#172840" stroke="#172840" stroke-width="0.2"/>
        </g>
      </g>
      <g id="Group_3102" data-name="Group 3102" transform="translate(18.492 9.106)">
        <g id="Group_3101" data-name="Group 3101">
          <path id="Path_1088" data-name="Path 1088" d="M262.679,280.61a1.757,1.757,0,1,0,1.757,1.757A1.759,1.759,0,0,0,262.679,280.61Zm0,2.556a.8.8,0,1,1,.8-.8A.8.8,0,0,1,262.679,283.166Z" transform="translate(-260.922 -280.61)" fill="#172840" stroke="#172840" stroke-width="0.2"/>
        </g>
      </g>
    </g>
  </g>
</svg>
