<svg id="Component_88" data-name="Component 88" xmlns="http://www.w3.org/2000/svg" width="24" height="24" viewBox="0 0 24 24">
  <rect id="Rectangle_265" data-name="Rectangle 265" width="24" height="24" fill="#fff" opacity="0"/>
  <g id="medal" transform="translate(-81.999 1.816)">
    <path id="Path_934" data-name="Path 934" d="M107.474,14.322a6.153,6.153,0,1,0,6.153,6.153A6.153,6.153,0,0,0,107.474,14.322Zm1.674,8.73-1.675-.88-1.674.88.32-1.865-1.355-1.32,1.872-.272.837-1.7.837,1.7,1.872.272-1.355,1.32Z" transform="translate(-13.752 -13.752)" fill="#f0b440"/>
    <g id="Group_2400" data-name="Group 2400" transform="translate(86.999)">
      <path id="Path_935" data-name="Path 935" d="M98.944,12.546a.57.57,0,0,0-.57.57v3.736l-1.723-1.16a.57.57,0,0,0-.636,0l-1.723,1.16v-2.12a.57.57,0,0,0-1.14,0v4l-1.723-1.16a.57.57,0,0,0-.636,0l-1.723,1.16V11.572a6.717,6.717,0,1,0-1.14-1.438V19.8a.57.57,0,0,0,.888.473l2.293-1.544L93.4,20.271a.57.57,0,0,0,.888-.473V18.225l2.041-1.374,2.293,1.544a.57.57,0,0,0,.888-.473V13.116A.57.57,0,0,0,98.944,12.546ZM93.722,1.14a5.584,5.584,0,1,1-5.584,5.584A5.59,5.59,0,0,1,93.722,1.14Z" transform="translate(-86.999)" fill="#172840"/>
      <path id="Path_936" data-name="Path 936" d="M174.885,93.963l-.269,1.569a.57.57,0,0,0,.827.6l1.409-.741,1.409.741a.57.57,0,0,0,.827-.6l-.269-1.569,1.14-1.111a.57.57,0,0,0-.316-.972l-1.576-.229-.7-1.428a.57.57,0,0,0-1.022,0l-.7,1.428-1.576.229a.57.57,0,0,0-.316.972Zm1.212-1.228a.57.57,0,0,0,.429-.312l.326-.661.326.661a.57.57,0,0,0,.429.312l.73.106-.528.515a.57.57,0,0,0-.164.5l.125.727-.653-.343a.569.569,0,0,0-.53,0l-.653.343.125-.727a.57.57,0,0,0-.164-.5l-.528-.515Z" transform="translate(-170.129 -86.328)" fill="#172840"/>
    </g>
  </g>
</svg>
