<svg xmlns="http://www.w3.org/2000/svg" xmlns:xlink="http://www.w3.org/1999/xlink" width="108.44" height="25.559" viewBox="0 0 108.44 25.559">
  <defs>
    <linearGradient id="linear-gradient" x1="2.472" y1="1.035" x2="2.361" y2="1.005" gradientUnits="objectBoundingBox">
      <stop offset="0" stop-color="#00a0ff"/>
      <stop offset="0.007" stop-color="#00a1ff"/>
      <stop offset="0.26" stop-color="#00beff"/>
      <stop offset="0.512" stop-color="#00d2ff"/>
      <stop offset="0.76" stop-color="#00dfff"/>
      <stop offset="1" stop-color="#00e3ff"/>
    </linearGradient>
    <linearGradient id="linear-gradient-2" x1="1.95" y1="1.879" x2="1.69" y2="1.879" gradientUnits="objectBoundingBox">
      <stop offset="0" stop-color="#ffe000"/>
      <stop offset="0.409" stop-color="#ffbd00"/>
      <stop offset="0.775" stop-color="orange"/>
      <stop offset="1" stop-color="#ff9c00"/>
    </linearGradient>
    <linearGradient id="linear-gradient-3" x1="1.926" y1="0.946" x2="1.835" y2="0.793" gradientUnits="objectBoundingBox">
      <stop offset="0" stop-color="#ff3a44"/>
      <stop offset="1" stop-color="#c31162"/>
    </linearGradient>
    <linearGradient id="linear-gradient-4" x1="1.856" y1="2.093" x2="1.897" y2="2.025" gradientUnits="objectBoundingBox">
      <stop offset="0" stop-color="#32a071"/>
      <stop offset="0.068" stop-color="#2da771"/>
      <stop offset="0.476" stop-color="#15cf74"/>
      <stop offset="0.801" stop-color="#06e775"/>
      <stop offset="1" stop-color="#00f076"/>
    </linearGradient>
  </defs>
  <g id="Google_Play_Store_badge_EN" transform="translate(-18.313 -12.417)">
    <path id="Path_1091" data-name="Path 1091" d="M1682.532,277.354a2.849,2.849,0,0,1-2.127-.88,3,3,0,0,1-.859-2.148,2.93,2.93,0,0,1,.859-2.146,2.84,2.84,0,0,1,2.125-.88,2.879,2.879,0,0,1,2.127.88,3.109,3.109,0,0,1,0,4.291A2.826,2.826,0,0,1,1682.532,277.354Zm-25.216,0a2.954,2.954,0,0,1-2.136-.868,3.026,3.026,0,0,1,2.136-5.183,2.978,2.978,0,0,1,1.193.247,2.413,2.413,0,0,1,.908.649l.056.068-.633.621-.066-.077a1.8,1.8,0,0,0-1.468-.633,2.03,2.03,0,0,0-1.464.6,2.269,2.269,0,0,0,0,3.11,2.14,2.14,0,0,0,2.967,0,1.619,1.619,0,0,0,.43-.974h-2.029v-.873h2.9l.012.079a3.207,3.207,0,0,1,.042.439,2.628,2.628,0,0,1-.724,1.938A2.825,2.825,0,0,1,1657.316,277.354Zm33.527-.124h-.894l-2.739-4.382.024.789v3.591h-.894v-5.8h1.02l.028.044,2.575,4.128-.023-.787v-3.385h.9Zm-15.03,0h-.906V272.3h-1.571v-.873h4.046v.873h-1.571v4.931Zm-3.215,0h-.9v-5.8h.9Zm-5.078,0h-.9V272.3h-1.571v-.873h4.046v.873h-1.571Zm-3.047-.009h-3.464v-5.794h3.464v.873h-2.559v1.592h2.309v.864h-2.309v1.592h2.559Zm16.594-1.347a2,2,0,0,0,1.464.607,1.948,1.948,0,0,0,1.464-.607,2.3,2.3,0,0,0,0-3.091,2,2,0,0,0-1.464-.607,1.939,1.939,0,0,0-1.461.607,2.3,2.3,0,0,0,0,3.091Z" transform="translate(-1606.707 -258.883)" fill="#fff"/>
    <path id="Path_1092" data-name="Path 1092" d="M1672.04,687.422a3.983,3.983,0,1,0,3.995,3.983A3.92,3.92,0,0,0,1672.04,687.422Zm0,6.387a2.42,2.42,0,1,1,2.246-2.414A2.3,2.3,0,0,1,1672.04,693.809Zm-8.715-6.387a3.983,3.983,0,1,0,3.995,3.983A3.92,3.92,0,0,0,1663.325,687.422Zm0,6.387a2.42,2.42,0,1,1,2.246-2.414A2.3,2.3,0,0,1,1663.325,693.809Zm-10.37-5.171v1.686H1657a3.554,3.554,0,0,1-.915,2.122,4.128,4.128,0,0,1-3.121,1.237,4.495,4.495,0,0,1,0-8.988,4.319,4.319,0,0,1,3.047,1.207l1.2-1.2a5.877,5.877,0,0,0-4.233-1.707,6.18,6.18,0,1,0,0,12.359,5.657,5.657,0,0,0,4.317-1.737,5.594,5.594,0,0,0,1.466-3.953,5.217,5.217,0,0,0-.093-1.051h-5.711S1652.955,688.638,1652.955,688.638Zm42.417,1.312a3.7,3.7,0,0,0-3.411-2.538,3.784,3.784,0,0,0-3.754,3.983,3.893,3.893,0,0,0,3.952,3.983,3.953,3.953,0,0,0,3.318-1.767l-1.352-.906a2.265,2.265,0,0,1-1.957,1.1,2.034,2.034,0,0,1-1.935-1.207l5.325-2.206S1695.372,689.95,1695.372,689.95Zm-5.43,1.331a2.186,2.186,0,0,1,2.08-2.321,1.536,1.536,0,0,1,1.478.843Zm-4.326,3.859h1.749v-11.7h-1.749Zm-2.872-6.833h-.063a2.759,2.759,0,0,0-2.1-.894,3.983,3.983,0,0,0,0,7.959,2.751,2.751,0,0,0,2.1-.906h.063v.572c0,1.52-.812,2.339-2.122,2.339a2.208,2.208,0,0,1-2.008-1.415l-1.52.635a3.8,3.8,0,0,0,3.525,2.351c2.05,0,3.787-1.207,3.787-4.151v-7.146h-1.653v.656Zm-2.008,5.5a2.422,2.422,0,0,1,0-4.826,2.239,2.239,0,0,1,2.122,2.423A2.211,2.211,0,0,1,1680.736,693.809Zm22.823-10.37h-4.181v11.7h1.749v-4.431h2.435a3.64,3.64,0,1,0,0-7.27Zm.051,5.636h-2.486v-4.016h2.486a2.008,2.008,0,1,1,0,4.016Zm10.8-1.674a3.293,3.293,0,0,0-3.121,1.788l1.55.644a1.663,1.663,0,0,1,1.592-.864,1.689,1.689,0,0,1,1.842,1.508v.124a3.915,3.915,0,0,0-1.821-.448c-1.674,0-3.371.915-3.371,2.631a2.7,2.7,0,0,0,2.9,2.58,2.462,2.462,0,0,0,2.225-1.144h.063v.906h1.686v-4.482C1717.954,688.556,1716.4,687.4,1714.408,687.4Zm-.219,6.408c-.572,0-1.373-.28-1.373-1,0-.906,1-1.249,1.851-1.249a3.035,3.035,0,0,1,1.592.395A2.1,2.1,0,0,1,1714.189,693.809Zm9.915-6.159-2.008,5.075h-.063l-2.08-5.075h-1.882l3.121,7.095-1.779,3.943h1.821l4.8-11.038Zm-15.74,7.489h1.749v-11.7h-1.749Z" transform="translate(-1599.284 -660.971)" fill="#fff" fill-rule="evenodd"/>
    <path id="Path_1093" data-name="Path 1093" d="M400.527,299.463a1.9,1.9,0,0,0-.427,1.321v20.7a1.805,1.805,0,0,0,.437,1.31l.072.063,11.6-11.6V311L400.6,299.4Z" transform="translate(-381.787 -286.327)" fill-rule="evenodd" fill="url(#linear-gradient)"/>
    <path id="Path_1094" data-name="Path 1094" d="M922.168,638.508l-3.869-3.868v-.271l3.869-3.868.084.052,4.576,2.6c1.31.738,1.31,1.956,0,2.7l-4.576,2.6Z" transform="translate(-887.889 -609.697)" fill-rule="evenodd" fill="url(#linear-gradient-2)"/>
    <path id="Path_1095" data-name="Path 1095" d="M434.023,805.953,430.071,802,418.4,813.671a1.532,1.532,0,0,0,1.945.063l13.678-7.781" transform="translate(-399.66 -777.193)" fill-rule="evenodd" fill="url(#linear-gradient-3)"/>
    <path id="Path_1096" data-name="Path 1096" d="M434.023,294.563l-13.678-7.77a1.517,1.517,0,0,0-1.945.063l11.671,11.659Z" transform="translate(-399.66 -273.709)" fill-rule="evenodd" fill="url(#linear-gradient-4)"/>
    <path id="Path_1097" data-name="Path 1097" d="M434.33,967.7l-13.585,7.718a1.542,1.542,0,0,1-1.872.009l-.072.072.072.063a1.545,1.545,0,0,0,1.872-.009l13.678-7.77Z" transform="translate(-400.051 -939.024)" fill-rule="evenodd" opacity="0.2"/>
    <path id="Path_1098" data-name="Path 1098" d="M1088.171,803.216l-4.671,2.652.084.084,4.576-2.6a1.64,1.64,0,0,0,.978-1.352A1.685,1.685,0,0,1,1088.171,803.216Z" transform="translate(-1049.233 -777.193)" fill-rule="evenodd" opacity="0.12"/>
    <path id="Path_1099" data-name="Path 1099" d="M402.472,286.759l18.254,10.37a1.72,1.72,0,0,1,.978,1.216,1.64,1.64,0,0,0-.978-1.352l-18.254-10.37c-1.31-.749-2.372-.124-2.372,1.373v.135C400.1,286.633,401.162,286.019,402.472,286.759Z" transform="translate(-381.787 -273.538)" fill="#fff" fill-rule="evenodd" opacity="0.25"/>
  </g>
</svg>
