<svg xmlns="http://www.w3.org/2000/svg" width="20.052" height="20.068" viewBox="0 0 20.052 20.068">
  <path id="edit" d="M20.03,15.961,13.914,9.868a.783.783,0,0,0-.186-.137,12.1,12.1,0,0,0,.344-2.8,6.932,6.932,0,0,0-13.864,0,13.387,13.387,0,0,0,1.016,4.909,21.749,21.749,0,0,0,2.192,4.09,26.4,26.4,0,0,0,3.18,3.9.783.783,0,0,0,1.09,0A26.7,26.7,0,0,0,11.4,15.1l4.756,4.738a.783.783,0,0,0,1.107,0l2.769-2.769a.783.783,0,0,0,0-1.109Zm-3.881-1.655-1.662,1.662-3.163-3.152-.332-1.993,1.995.332ZM7.14,18.136c-1.463-1.6-5.366-6.318-5.366-11.2a5.365,5.365,0,0,1,10.731,0,10.578,10.578,0,0,1-.317,2.5L10.167,9.1a.783.783,0,0,0-.9.9l.554,3.323a.783.783,0,0,0,.22.426l.218.217A26.305,26.305,0,0,1,7.14,18.136Zm9.566.043L15.6,17.073l1.662-1.662,1.11,1.106ZM7.14,4.582a2.35,2.35,0,1,0,2.35,2.35A2.353,2.353,0,0,0,7.14,4.582Zm0,3.133a.783.783,0,1,1,.783-.783A.784.784,0,0,1,7.14,7.715Z" transform="translate(-0.208)" fill="#acb1b8"/>
</svg>
