<svg xmlns="http://www.w3.org/2000/svg" width="113" height="113" viewBox="0 0 113 113">
  <g id="email" transform="translate(-0.261 0)">
    <path id="Path_851" data-name="Path 851" d="M113.261,244.429a4.837,4.837,0,0,1-1.412,3.553,5.084,5.084,0,0,1-3.3,1.184H4.969a5.6,5.6,0,0,1-3.3-1.184,4.836,4.836,0,0,1-1.412-3.553V175.02h113Z" transform="translate(0 -136.166)" fill="#ffd15c"/>
    <path id="Path_852" data-name="Path 852" d="M116.688,334.44a5.082,5.082,0,0,1-3.3,1.184H9.825a5.6,5.6,0,0,1-3.3-1.184l55.079-47.615Z" transform="translate(-4.848 -222.624)" fill="#f8b64c"/>
    <path id="Path_853" data-name="Path 853" d="M113.261,39.267,97.253,50.753,59.821,77.478a5.315,5.315,0,0,1-6.356,0l-37.2-26.725L.261,39.267,16.269,27.78,51.111,2.93,53.7,1.055a5.315,5.315,0,0,1,6.356,0l2.59,1.875L79.361,14.886,87.6,20.747l9.652,7.033Z" transform="translate(0)" fill="#40596b"/>
    <path id="Path_854" data-name="Path 854" d="M152.1,27.748V61.386L114.758,88.392a5.247,5.247,0,0,1-6.34,0l-37.1-27.005V17.8a4.731,4.731,0,0,1,4.7-4.738H137.3Z" transform="translate(-54.945 -10.1)" fill="#f2f2f2"/>
    <path id="Path_855" data-name="Path 855" d="M365.974,23.958a3.742,3.742,0,0,0,3.79,3.79h10.9L365.974,13.061v10.9Z" transform="translate(-283.509 -10.1)" fill="#cdd6e0"/>
    <path id="Path_856" data-name="Path 856" d="M204.412,130.165h3.79a12.515,12.515,0,0,1-5.685,5.922c-2.843,1.658-6.4,2.369-10.66,2.369a23.37,23.37,0,0,1-10.423-2.132,13.972,13.972,0,0,1-6.633-6.159,18.446,18.446,0,0,1-2.132-8.765,19.656,19.656,0,0,1,2.369-9.712,14.957,14.957,0,0,1,6.633-6.633,21.665,21.665,0,0,1,9.712-2.132,18.585,18.585,0,0,1,8.291,1.9,11.629,11.629,0,0,1,5.449,5.212,15.388,15.388,0,0,1,1.9,7.344,14.193,14.193,0,0,1-2.843,8.528,10.654,10.654,0,0,1-9.239,4.738,5.944,5.944,0,0,1-2.369-.474,2.4,2.4,0,0,1-.948-1.658,6.818,6.818,0,0,1-4.975,2.132,6.119,6.119,0,0,1-4.975-2.132,7.684,7.684,0,0,1-2.132-5.685,14.478,14.478,0,0,1,2.369-8.054,8.811,8.811,0,0,1,7.581-4.264,5.866,5.866,0,0,1,4.975,2.606l.474-2.132h4.975l-2.843,13.266a6.25,6.25,0,0,0-.237,1.658.87.87,0,0,0,.237.711c.237.237.237.237.474.237a5.363,5.363,0,0,0,2.369-1.184,9.886,9.886,0,0,0,3.08-3.79,12.729,12.729,0,0,0,1.184-4.975,9.85,9.85,0,0,0-3.317-7.581c-2.132-2.132-5.212-3.08-9.239-3.08a16.276,16.276,0,0,0-8.528,2.132,13.385,13.385,0,0,0-5.212,5.685,17.163,17.163,0,0,0-1.658,7.817,14.473,14.473,0,0,0,1.9,7.107,11.75,11.75,0,0,0,5.449,4.738,21.249,21.249,0,0,0,8.054,1.421,24.246,24.246,0,0,0,7.581-1.184A14.131,14.131,0,0,0,204.412,130.165Zm-20.136-7.58a5.294,5.294,0,0,0,.948,3.553,3.289,3.289,0,0,0,2.369,1.184,4.462,4.462,0,0,0,1.9-.474,6.281,6.281,0,0,0,1.421-1.184,8.65,8.65,0,0,0,1.658-3.317,13.139,13.139,0,0,0,.711-4.027,5.013,5.013,0,0,0-.948-3.317,3.289,3.289,0,0,0-2.369-1.184A4.371,4.371,0,0,0,187.119,115a6.507,6.507,0,0,0-2.132,3.553A13.148,13.148,0,0,0,184.277,122.585Z" transform="translate(-133.675 -79.835)" fill="#ff7058"/>
  </g>
</svg>
