<svg id="empty_box" data-name="empty box" xmlns="http://www.w3.org/2000/svg" width="140" height="140" viewBox="0 0 140 140">
  <rect id="Rectangle_266" data-name="Rectangle 266" width="140" height="140" fill="#fff" opacity="0"/>
  <g id="Group_2170" data-name="Group 2170" transform="translate(-702.786 -216.816)">
    <g id="Untitled-2" transform="matrix(0.921, -0.391, 0.391, 0.921, 709.889, 260.859)">
      <path id="Path_729" data-name="Path 729" d="M14.928,78.9C-2.834,66.733-6.268,26.3,12.965,8.15,33.376-11.083,95.688,5.6,96.08,38.57S32.983,91.167,14.928,78.9Z" transform="translate(0 14.971)" fill="#f4f4f4"/>
      <path id="Path_730" data-name="Path 730" d="M11.427.591C4.852-1.96-.545,4.32.044,8.442s13.64,2.355,15.308.393C17.02,6.774,13.193,1.278,11.427.591Z" transform="translate(17.929 0)" fill="#f4f4f4"/>
    </g>
    <g id="Group_1845" data-name="Group 1845" transform="translate(721.323 255.594)">
      <path id="Path_758" data-name="Path 758" d="M-3546.876,3258.776l-27.142,11.814,8.885,17.281,29.681-13.376Z" transform="translate(3633.448 -3247.599)" fill="#eee"/>
      <path id="Path_759" data-name="Path 759" d="M35.65,0,0,17.781,1.849,37.568,38.944,22Z" transform="matrix(0.788, 0.616, -0.616, 0.788, 26.651, 1.131)" fill="#eee"/>
      <g id="empty-white-box" transform="translate(0 0)">
        <g id="Group_1843" data-name="Group 1843" transform="translate(0 0)">
          <path id="Path_756" data-name="Path 756" d="M89.366,12.928a2.576,2.576,0,0,0-2.51-1.052c-.036-.009-.073-.024-.109-.029L47.586,6.1a2.585,2.585,0,0,0-1.272.132L14.95,17.726c-.014.005-.026.014-.04.019-.033.014-.064.035-.1.047a2.69,2.69,0,0,0-.478.272c-.045.033-.088.066-.133.1a2.528,2.528,0,0,0-.431.44c-.007.01-.017.016-.024.026L.5,36.749A2.6,2.6,0,0,0,1.949,40.8l11.492,2.968V72.18a2.6,2.6,0,0,0,1.84,2.486L57.36,87.523c.014.007.029,0,.043.009a2.7,2.7,0,0,0,.7.1c.005,0,.012,0,.019,0h0a2.6,2.6,0,0,0,.733-.116c.076-.024.147-.057.225-.09a2.608,2.608,0,0,0,.3-.118l30.2-16.757a2.6,2.6,0,0,0,1.337-2.273V39.878l10.214-4.9a2.6,2.6,0,0,0,1-3.835Zm-41.882-1.59L78.05,15.824,57.774,25.252,25.667,19.336ZM16.979,23.019l36.79,6.78L42.956,46.021l-36-9.294Zm1.66,47.238V45.108l24.8,6.4a2.694,2.694,0,0,0,.65.083,2.6,2.6,0,0,0,2.162-1.157l9.266-13.9V81.526Zm67.077-3.5-25,13.871V39.58l4.565,9.7a2.6,2.6,0,0,0,1.479,1.339,2.512,2.512,0,0,0,.87.151,2.65,2.65,0,0,0,1.124-.253l16.958-8.139,0,24.376ZM68.87,44.7,61.582,29.214l24.776-11.52,9.76,13.923Z" transform="translate(0 -6.071)" fill="#acb1b8"/>
        </g>
      </g>
    </g>
    <g id="Group_1858" data-name="Group 1858" transform="translate(753.543 231.765)">
      <path id="Path_777" data-name="Path 777" d="M228.257,9.478a2.257,2.257,0,0,0,2.257-2.257V2.257a2.257,2.257,0,0,0-4.513,0V7.221A2.257,2.257,0,0,0,228.257,9.478Z" transform="translate(-212.033)" fill="#f0b440"/>
      <path id="Path_778" data-name="Path 778" d="M133.962,45.88l3.8,3.191a2.257,2.257,0,0,0,2.9-3.457l-3.8-3.191a2.257,2.257,0,1,0-2.9,3.457Z" transform="translate(-133.156 -35.593)" fill="#f0b440"/>
      <path id="Path_779" data-name="Path 779" d="M297.271,49.072l3.8-3.191a2.257,2.257,0,1,0-2.9-3.457l-3.8,3.191a2.257,2.257,0,0,0,2.9,3.457Z" transform="translate(-269.432 -35.593)" fill="#f0b440"/>
    </g>
  </g>
</svg>
