<svg xmlns="http://www.w3.org/2000/svg" width="18.966" height="23.842" viewBox="0 0 18.966 23.842">
  <g id="empty-set-mathematical-symbol" transform="translate(-14.615 0.001)">
    <g id="Group_3086" data-name="Group 3086" transform="translate(14.615 -0.001)">
      <path id="Path_1078" data-name="Path 1078" d="M17.666,19.15l-2,2.754a1.219,1.219,0,0,0,1.972,1.435l2.02-2.776A9.477,9.477,0,0,0,30.7,5.39l2.515-3.455A1.219,1.219,0,1,0,31.241.5l-2.5,3.429A9.477,9.477,0,0,0,17.666,19.15Zm13.476-6.96a7.028,7.028,0,0,1-10.031,6.371L29.24,7.392A7.009,7.009,0,0,1,31.142,12.19ZM24.1,5.146a6.991,6.991,0,0,1,3.2.775L19.112,17.162A7.04,7.04,0,0,1,24.1,5.146Z" transform="translate(-14.615 0.001)" fill="#acb1b8"/>
    </g>
  </g>
</svg>
