<svg xmlns="http://www.w3.org/2000/svg" width="34" height="34" viewBox="0 0 34 34">
  <g id="Group_3085" data-name="Group 3085" transform="translate(-535 -4094)">
    <g id="Ellipse_6" data-name="Ellipse 6" transform="translate(535 4094)" fill="#fff" stroke="#d1d1d1" stroke-width="1">
      <circle cx="17" cy="17" r="17" stroke="none"/>
      <circle cx="17" cy="17" r="16.5" fill="none"/>
    </g>
    <g id="information" transform="translate(544.136 4103.137)">
      <path id="Path_647" data-name="Path 647" d="M7.864,0a7.864,7.864,0,1,0,7.864,7.864A7.873,7.873,0,0,0,7.864,0Zm0,14.3A6.434,6.434,0,1,1,14.3,7.864,6.442,6.442,0,0,1,7.864,14.3Z" fill="#172840" stroke="#fff" stroke-width="0.3"/>
      <path id="Path_648" data-name="Path 648" d="M145.955,70a.953.953,0,1,0,.953.954A.954.954,0,0,0,145.955,70Z" transform="translate(-138.091 -66.664)" fill="#172840" stroke="#fff" stroke-width="0.3"/>
      <path id="Path_649" data-name="Path 649" d="M150.715,140a.715.715,0,0,0-.715.715V145a.715.715,0,1,0,1.43,0v-4.29A.715.715,0,0,0,150.715,140Z" transform="translate(-142.851 -133.327)" fill="#172840" stroke="#fff" stroke-width="0.3"/>
    </g>
  </g>
</svg>
