<svg id="Group_1235" data-name="Group 1235" xmlns="http://www.w3.org/2000/svg" width="32.137" height="22.034" viewBox="0 0 32.137 22.034">
  <path id="Path_2471" data-name="Path 2471" d="M231.147,160.075l4.624,4.624.022-.242a4.407,4.407,0,0,0-4.405-4.405Z" transform="translate(-215.229 -153.445)" fill="#bdbdbd"/>
  <path id="Path_2472" data-name="Path 2472" d="M155.533,67.644a7.342,7.342,0,0,1,7.34,7.34,7.237,7.237,0,0,1-.52,2.68l4.237,4.211a15.967,15.967,0,0,0,4.92-6.987c-2.038-6.006-8.9-11.044-15.978-10.912a16.613,16.613,0,0,0-5.851.994l3.171,3.2a7.375,7.375,0,0,1,2.682-.523Z" transform="translate(-139.373 -63.973)" fill="#bdbdbd"/>
  <path id="Path_2473" data-name="Path 2473" d="M2.915,176.258a15,15,0,0,0-3.322,5.325c1.99,6.263,9.672,11.507,16.97,11.022a17.148,17.148,0,0,0,7.919-2.491s-12.995-13.164-17.19-17.361A17.593,17.593,0,0,0,2.915,176.258Zm6.276,2.122,2.276,2.268a4.652,4.652,0,0,0-.11.961,4.407,4.407,0,0,0,4.405,4.405,4.523,4.523,0,0,0,.955-.11l2.268,2.268a7.288,7.288,0,0,1-9.779-9.791Z" transform="translate(0.407 -170.603)" fill="#bdbdbd"/>
</svg>
