<svg id="Group_2169" data-name="Group 2169" xmlns="http://www.w3.org/2000/svg" width="24" height="24" viewBox="0 0 24 24">
  <rect id="Rectangle_265" data-name="Rectangle 265" width="24" height="24" fill="#fff" opacity="0"/>
  <g id="property" transform="translate(2.475 3.216)">
    <g id="Group_1922" data-name="Group 1922" transform="translate(3.141 3.741)">
      <g id="Group_1921" data-name="Group 1921" transform="translate(0 0)">
        <path id="Path_836" data-name="Path 836" d="M67.331,85.022l-6.392,5.01v8.826H64.29V93.27a.415.415,0,0,1,.4-.423h5.28a.415.415,0,0,1,.4.423v5.588h3.351V90.032Z" transform="translate(-60.939 -85.022)" fill="#acb1b8"/>
      </g>
    </g>
    <g id="Group_1924" data-name="Group 1924" transform="translate(0 0)">
      <g id="Group_1923" data-name="Group 1923" transform="translate(0 0)">
        <path id="Path_837" data-name="Path 837" d="M9.533,10.96,0,18.417,1.466,20l7.809-6.131a.419.419,0,0,1,.515,0L17.6,20l1.466-1.582Z" transform="translate(0 -10.96)" fill="#acb1b8"/>
      </g>
    </g>
    <g id="Group_1926" data-name="Group 1926" transform="translate(7.317 12.374)">
      <g id="Group_1925" data-name="Group 1925">
        <rect id="Rectangle_245" data-name="Rectangle 245" width="4.433" height="5.203" fill="#acb1b8"/>
      </g>
    </g>
  </g>
</svg>
