<svg width="29" height="30" viewBox="0 0 29 30" fill="none" xmlns="http://www.w3.org/2000/svg">
<path fill-rule="evenodd" clip-rule="evenodd" d="M27.9493 0.447318C28.1778 0.830175 28.1267 1.33144 27.8263 1.6526L12.4604 18.0803C12.1793 18.3808 11.7478 18.4501 11.3965 18.2512L0.512325 12.0909C0.196258 11.912 0.00829406 11.551 0.0326251 11.1696C0.0569562 10.7881 0.289021 10.4577 0.624878 10.3264L26.8749 0.0590304C27.2739 -0.0970203 27.7207 0.0644649 27.9493 0.447318ZM3.15726 11.3974L11.6528 16.2057L23.6465 3.38333L3.15726 11.3974Z" fill="#0F172A"/>
<path fill-rule="evenodd" clip-rule="evenodd" d="M27.6728 0.152049C28.0309 0.396407 28.1819 0.87408 28.036 1.30061L18.4323 29.3645C18.3094 29.7236 18.0004 29.9717 17.6436 29.9977C17.2868 30.0237 16.9491 29.8227 16.7818 29.4848L11.0195 17.8486C10.8336 17.473 10.8985 17.0117 11.1795 16.7112L26.5454 0.283542C26.8459 -0.0376175 27.3147 -0.0923041 27.6728 0.152049ZM24.9266 4.75221L12.9329 17.5746L17.4305 26.6572L24.9266 4.75221Z" fill="#0F172A"/>
</svg>
