<svg xmlns="http://www.w3.org/2000/svg" width="24" height="24" viewBox="0 0 24 24">
  <g id="Component_89" data-name="Component 89" transform="translate(0.222 0.414)">
    <rect id="Rectangle_260" data-name="Rectangle 260" width="24" height="24" transform="translate(-0.222 -0.414)" fill="#fff" opacity="0"/>
    <g id="heart_outline" data-name="heart outline" transform="translate(0 0.789)">
      <g id="Group_566" data-name="Group 566" transform="translate(0 0)">
        <path id="Path_447" data-name="Path 447" d="M23.548,34.914a6.918,6.918,0,0,0-1.882-4.433A6.053,6.053,0,0,0,17.3,28.536a5.592,5.592,0,0,0-4.094,1.7,8.275,8.275,0,0,0-1.475,2.029,8.275,8.275,0,0,0-1.475-2.029,5.6,5.6,0,0,0-4.094-1.7,5.92,5.92,0,0,0-4.323,1.951A7,7,0,0,0,.009,34.914c-.205,4.354,3.222,7.275,8.411,11.7.912.777,1.855,1.581,2.858,2.459l.454.4.454-.4c1.064-.931,2.062-1.778,3.027-2.6C20.355,42.109,23.751,39.226,23.548,34.914ZM20.235,39.9A49.239,49.239,0,0,1,14.32,45.42c-.831.705-1.686,1.431-2.588,2.214-.842-.731-1.641-1.412-2.418-2.074a50,50,0,0,1-5.982-5.606,7.056,7.056,0,0,1-1.945-4.975,5.082,5.082,0,0,1,4.786-5.063h.037c2.667,0,4.027,2.269,4.6,3.626a1,1,0,0,0,1.841,0c.574-1.357,1.934-3.626,4.6-3.626h.037a5.187,5.187,0,0,1,4.878,5.063A6.965,6.965,0,0,1,20.235,39.9Z" transform="translate(0 -28.536)" fill="#4d5a6c"/>
      </g>
    </g>
  </g>
</svg>
