<svg id="location_min" data-name="location min" xmlns="http://www.w3.org/2000/svg" width="16" height="16" viewBox="0 0 16 16">
  <path id="Path_900" data-name="Path 900" d="M0,0H16V16H0Z" transform="translate(0 16) rotate(-90)" fill="#fff" opacity="0"/>
  <g id="map-location" transform="translate(3.546 0.266)">
    <path id="Path_699" data-name="Path 699" d="M188.211,370.1c-.728,1-1.3,1.7-1.3,1.7a20.927,20.927,0,0,1-1.4-1.619,2.141,2.141,0,1,0,2.7-.083Z" transform="translate(-182.153 -358.976)" fill="#f0b440"/>
    <circle id="Ellipse_20" data-name="Ellipse 20" cx="2.343" cy="2.343" r="2.343" transform="translate(2.415 2.415)" fill="#f0b440"/>
    <g id="Group_1804" data-name="Group 1804">
      <path id="Path_698" data-name="Path 698" d="M102.493,13.251a.423.423,0,0,1-.3-.126c-.182-.184-4.457-4.551-4.457-8.367a4.758,4.758,0,1,1,9.516,0,.423.423,0,1,1-.846,0,3.912,3.912,0,0,0-7.824,0c0,2.893,2.895,6.331,3.885,7.422A39.633,39.633,0,0,0,105.5,7.766a.423.423,0,1,1,.737.414,41.9,41.9,0,0,1-3.412,4.914.423.423,0,0,1-.308.156Z" transform="translate(-97.735)" fill="#172840"/>
      <path id="Path_700" data-name="Path 700" d="M173.266,360.724a2.564,2.564,0,0,1-1.678-4.5.423.423,0,0,1,.609.058c.416.529.79.956,1.042,1.233.235-.3.588-.76.985-1.3a.423.423,0,0,1,.6-.086,2.564,2.564,0,0,1-1.556,4.6Zm-1.42-3.531a1.718,1.718,0,1,0,2.772-.094c-.585.786-1.019,1.321-1.024,1.327a.423.423,0,0,1-.629.031C172.943,358.434,172.475,357.959,171.846,357.192Z" transform="translate(-168.509 -345.332)" fill="#172840"/>
      <g id="Group_1803" data-name="Group 1803" transform="translate(1.992 1.992)">
        <path id="Path_701" data-name="Path 701" d="M166.754,71.785a2.766,2.766,0,1,1,2.766-2.766A2.769,2.769,0,0,1,166.754,71.785Zm0-4.686a1.92,1.92,0,1,0,1.92,1.92A1.923,1.923,0,0,0,166.754,67.1Z" transform="translate(-163.988 -66.253)" fill="#172840"/>
        <path id="Path_702" data-name="Path 702" d="M299.8,201.089a.421.421,0,0,1-.288-.113l-1.7-1.578a.423.423,0,1,1,.576-.619l1.7,1.578a.423.423,0,0,1-.288.732Z" transform="translate(-293.66 -194.684)" fill="#172840"/>
      </g>
    </g>
  </g>
</svg>
