<svg xmlns="http://www.w3.org/2000/svg" width="52.477" height="53.676" viewBox="0 0 52.477 53.676">
  <g id="log-out_1_" data-name="log-out (1)" transform="translate(-24 -24)">
    <path id="Path_1131" data-name="Path 1131" d="M169.913,236.963H138.481a2.481,2.481,0,1,1,0-4.963h31.431a2.481,2.481,0,1,1,0,4.963Z" transform="translate(-99.044 -183.643)" fill="#f07040"/>
    <path id="Path_1133" data-name="Path 1133" d="M47.136,77.676H26.776A2.776,2.776,0,0,1,24,74.9V26.776A2.776,2.776,0,0,1,26.776,24h20.36a2.776,2.776,0,0,1,2.776,2.776V37.882a2.776,2.776,0,0,1-5.553,0V29.553H29.553v42.57H44.36V63.794a2.776,2.776,0,0,1,5.553,0V74.9A2.776,2.776,0,0,1,47.136,77.676Z" transform="translate(0 0)" fill="#f07040"/>
    <path id="Path_1134" data-name="Path 1134" d="M172.139,433.741l-9.073-6.206a.837.837,0,0,1,0-1.382l9.073-6.206a.837.837,0,0,1,1.31.691V433.05A.837.837,0,0,1,172.139,433.741Zm0,0" transform="translate(239.179 477.682) rotate(180)" fill="#f07040"/>
  </g>
</svg>
