<svg xmlns="http://www.w3.org/2000/svg" width="154.752" height="46.888" viewBox="0 0 154.752 46.888">
  <g id="Logo" transform="translate(0 0.011)">
    <g id="Group_1360" data-name="Group 1360" transform="translate(0 -0.011)">
      <path id="Path_455" data-name="Path 455" d="M148.8,37.943l6.386-1.218-.48-33.114s-.48-2.215,7.125-2.953C158.878-.561,148.8-.45,148.8,3.869Z" transform="translate(-93.869 0.011)" fill="#f0b440"/>
      <g id="Group_1359" data-name="Group 1359" transform="translate(0 0.041)">
        <path id="Path_456" data-name="Path 456" d="M175.661,10.524c0-2.658-.738-4.024-2.178-4.024a5.925,5.925,0,0,0-1.883.3V26.73h4.061Z" transform="translate(-108.252 -4.137)" fill="none"/>
        <path id="Path_457" data-name="Path 457" d="M309.83,50.437c-.923,0-1.55.628-1.846,1.846a14.5,14.5,0,0,0-.185,3.1v6.5a15.287,15.287,0,0,0,.554,5.205,1.631,1.631,0,0,0,1.624.923h1.883v-17.5l-1.883-.111h-.148Z" transform="translate(-194.172 -31.831)" fill="none"/>
        <rect id="Rectangle_137" data-name="Rectangle 137" width="6.35" height="4.43" transform="translate(48.545 42.417)" fill="#f0b440"/>
        <rect id="Rectangle_138" data-name="Rectangle 138" width="9.414" height="6.313" transform="translate(42.933 5.168)" fill="#f0b440"/>
        <rect id="Rectangle_139" data-name="Rectangle 139" width="6.35" height="4.43" transform="translate(41.346 42.417)" fill="#f0b440"/>
        <path id="Path_458" data-name="Path 458" d="M171.108,39.146V7.509c0-2.584-.664-4.43-1.993-5.574S165.644.2,162.617.2A19.533,19.533,0,0,0,154.2,2.378V37.411h.3v1.7h6.054V25.635h4.061V39.146ZM160.623,22.756V2.821a5.925,5.925,0,0,1,1.883-.3c1.44,0,2.178,1.329,2.178,4.024V22.793h-4.061Z" transform="translate(-97.275 -0.163)" fill="#fff"/>
        <g id="Group_1358" data-name="Group 1358" transform="translate(0 0.221)">
          <path id="Path_459" data-name="Path 459" d="M16.5,41.308c0,.591-.037,1.107-.074,1.477a4.014,4.014,0,0,1-.185.923c-.443.96-2.806,1.44-4.208,1.44a3.294,3.294,0,0,1-2.326-.554c-.443-.443-.664-2.51-.664-6.128H0v3.1a4.386,4.386,0,0,0,2.732,4.282c1.883.886,5.021,1.292,9.34,1.292s7.42-.443,9.34-1.292a4.348,4.348,0,0,0,2.843-4.282V.7H16.5Z" transform="translate(0 -0.7)" fill="#fff"/>
          <path id="Path_460" data-name="Path 460" d="M104.842,37.853h-2.289a13.514,13.514,0,0,1-1.366-.037,8.567,8.567,0,0,1-1.107-.185V15.26H90.888V33.718c0,.628-.037,1.181-.074,1.587a4.413,4.413,0,0,1-.185.96,2.575,2.575,0,0,1-2.473,1.587H86.089a11.514,11.514,0,0,1-2.584-.221V.9H75.9V37.927a40.929,40.929,0,0,0,10.189,1.661H87.9a30.719,30.719,0,0,0,7.642-.7,25.629,25.629,0,0,0,3.433.48c1.181.111,2.215.148,3.175.221h2.99V37.853Z" transform="translate(-47.881 -0.826)" fill="#fff"/>
        </g>
        <rect id="Rectangle_140" data-name="Rectangle 140" width="6.35" height="4.356" transform="translate(78.041 0.037)" fill="#f0b440"/>
        <path id="Path_461" data-name="Path 461" d="M198.152,49.77a19.4,19.4,0,0,1-.185,3.249c-.258,1.44-.886,2.215-1.883,2.289a13.765,13.765,0,0,1-1.55.111,11.6,11.6,0,0,1-4.1-1.4l-.037,2.51a16.611,16.611,0,0,0,5.685,1c3.027,0,5.205-.554,6.5-1.7s1.92-2.99,1.92-5.574V20.2h-6.35Z" transform="translate(-120.112 -12.78)" fill="#fff"/>
        <path id="Path_462" data-name="Path 462" d="M247.284,48.921H245.4a1.852,1.852,0,0,1-1.4-.48c-.517-.628-.775-2.621-.775-5.943V20.2H236.8V43.309q0,5.094,2.879,6.977c1.514,1,4.061,1.477,7.6,1.477a9.275,9.275,0,0,1-.148,1.44,2.311,2.311,0,0,1-1.071,1.92,6.351,6.351,0,0,1-2.326.3,11.444,11.444,0,0,1-4.061-1.329l-.037,2.473a15.113,15.113,0,0,0,5.685,1.034,10.948,10.948,0,0,0,6.165-1.514,4.892,4.892,0,0,0,2.215-4.319V20.2h-6.386V48.921Z" transform="translate(-149.383 -12.78)" fill="#fff"/>
        <path id="Path_463" data-name="Path 463" d="M299.471,20.2c-.849,0-2.215.037-4.1.148v2.215l1.735-.185c.96,0,1.587,0,1.883.037,1,.148,1.624.886,1.883,2.289a19.914,19.914,0,0,1,.148,3.249v1a18.116,18.116,0,0,0-2.51-.111c-5.353,0-8.011,2.436-8.011,7.309v7.125c0,5.648,2.879,8.454,8.6,8.454h8.306V27.509c0-2.547-.628-4.393-1.883-5.574C304.27,20.791,302.239,20.2,299.471,20.2Zm1.477,28.721h-1.883A1.631,1.631,0,0,1,297.44,48q-.554-1.163-.554-5.205v-6.46a17.6,17.6,0,0,1,.185-3.1c.3-1.218.923-1.846,1.846-1.846h.148l1.883.111Z" transform="translate(-183.259 -12.78)" fill="#fff"/>
        <path id="Path_464" data-name="Path 464" d="M353.118,36.831a2.257,2.257,0,0,1-2.436-1.55,16.86,16.86,0,0,1-.258-3.729V.617L344,.1V32.069c0,4.873,2.621,7.309,7.826,7.309l2.473-.111v-2.51C353.857,36.795,353.487,36.831,353.118,36.831Z" transform="translate(-217.009 -0.1)" fill="#fff"/>
      </g>
      <rect id="Rectangle_141" data-name="Rectangle 141" width="10.595" height="9.414" transform="translate(144.157 26.399)" fill="#f0b440"/>
      <path id="Path_465" data-name="Path 465" d="M381.745,91.865V88.1H377.5v6.793h7.6V91.865Z" transform="translate(-238.142 -55.573)" fill="#f0b440"/>
    </g>
    <path id="Path_466" data-name="Path 466" d="M212.666,3.227V.2H211.3V4.593h6.35V3.227Z" transform="translate(-133.296 -0.133)" fill="#fff"/>
  </g>
</svg>
