<svg xmlns="http://www.w3.org/2000/svg" width="70.738" height="21.433" viewBox="0 0 70.738 21.433">
  <g id="Logo" transform="translate(0 0.011)">
    <g id="Group_1360" data-name="Group 1360" transform="translate(0 -0.011)">
      <path id="Path_455" data-name="Path 455" d="M148.8,17.338l2.919-.557L151.5,1.644s-.219-1.012,3.257-1.35c-1.35-.557-5.957-.506-5.957,1.468Z" transform="translate(-123.691 0.011)" fill="#f0b440"/>
      <g id="Group_1359" data-name="Group 1359" transform="translate(0 0.019)">
        <path id="Path_456" data-name="Path 456" d="M173.456,8.339c0-1.215-.337-1.839-1-1.839a2.708,2.708,0,0,0-.861.135v9.112h1.856Z" transform="translate(-142.643 -5.42)" fill="none"/>
        <path id="Path_457" data-name="Path 457" d="M308.728,50.417c-.422,0-.709.287-.844.844a6.631,6.631,0,0,0-.084,1.417v2.97a6.987,6.987,0,0,0,.253,2.379.745.745,0,0,0,.742.422h.861v-8L308.8,50.4h-.068Z" transform="translate(-255.86 -41.912)" fill="none"/>
        <rect id="Rectangle_137" data-name="Rectangle 137" width="2.902" height="2.025" transform="translate(22.19 19.389)" fill="#f0b440"/>
        <rect id="Rectangle_138" data-name="Rectangle 138" width="4.303" height="2.886" transform="translate(19.625 2.362)" fill="#f0b440"/>
        <rect id="Rectangle_139" data-name="Rectangle 139" width="2.902" height="2.025" transform="translate(18.9 19.389)" fill="#f0b440"/>
        <path id="Path_458" data-name="Path 458" d="M161.929,18V3.541a3.188,3.188,0,0,0-.911-2.548A4.5,4.5,0,0,0,158.047.2a8.929,8.929,0,0,0-3.847,1V17.21h.135v.776H157.1V11.827h1.856V18Zm-4.792-7.492V1.4A2.708,2.708,0,0,1,158,1.263c.658,0,1,.607,1,1.839v7.425h-1.856Z" transform="translate(-128.179 -0.183)" fill="#172840"/>
        <g id="Group_1358" data-name="Group 1358" transform="translate(0 0.101)">
          <path id="Path_459" data-name="Path 459" d="M7.543,19.262c0,.27-.017.506-.034.675a1.835,1.835,0,0,1-.084.422c-.2.439-1.282.658-1.924.658a1.506,1.506,0,0,1-1.063-.253c-.2-.2-.3-1.147-.3-2.8H0V19.38a2,2,0,0,0,1.249,1.957,10.92,10.92,0,0,0,4.269.591,11.311,11.311,0,0,0,4.269-.591,1.987,1.987,0,0,0,1.3-1.957V.7H7.543Z" transform="translate(0 -0.7)" fill="#172840"/>
          <path id="Path_460" data-name="Path 460" d="M89.13,17.791H88.083a6.176,6.176,0,0,1-.624-.017,3.916,3.916,0,0,1-.506-.084V7.464h-4.2V15.9c0,.287-.017.54-.034.726a2.017,2.017,0,0,1-.084.439,1.177,1.177,0,0,1-1.131.726h-.945a5.263,5.263,0,0,1-1.181-.1V.9H75.9V17.825a18.709,18.709,0,0,0,4.657.759h.827a14.042,14.042,0,0,0,3.493-.321,11.715,11.715,0,0,0,1.569.219c.54.051,1.012.067,1.451.1h1.367v-.793Z" transform="translate(-63.092 -0.866)" fill="#172840"/>
        </g>
        <rect id="Rectangle_140" data-name="Rectangle 140" width="2.902" height="1.991" transform="translate(35.673 0.017)" fill="#f0b440"/>
        <path id="Path_461" data-name="Path 461" d="M193.944,33.717a8.868,8.868,0,0,1-.084,1.485c-.118.658-.4,1.012-.861,1.046a6.292,6.292,0,0,1-.709.051,5.3,5.3,0,0,1-1.873-.641L190.4,36.8a7.593,7.593,0,0,0,2.6.456,4.477,4.477,0,0,0,2.97-.776,3.237,3.237,0,0,0,.877-2.548V20.2h-2.9Z" transform="translate(-158.271 -16.808)" fill="#172840"/>
        <path id="Path_462" data-name="Path 462" d="M241.592,33.328h-.861a.847.847,0,0,1-.641-.219,5.772,5.772,0,0,1-.354-2.717V20.2H236.8V30.763a3.527,3.527,0,0,0,1.316,3.189,6.617,6.617,0,0,0,3.476.675,4.243,4.243,0,0,1-.068.658,1.057,1.057,0,0,1-.489.877,2.9,2.9,0,0,1-1.063.135,5.231,5.231,0,0,1-1.856-.607l-.017,1.131a6.909,6.909,0,0,0,2.6.472,5,5,0,0,0,2.818-.692,2.236,2.236,0,0,0,1.012-1.974V20.2h-2.919V33.328Z" transform="translate(-196.841 -16.808)" fill="#172840"/>
        <path id="Path_463" data-name="Path 463" d="M294.6,20.2c-.388,0-1.012.017-1.873.067V21.28l.793-.084c.439,0,.726,0,.861.017.456.067.742.4.861,1.046a9.1,9.1,0,0,1,.068,1.485V24.2a8.28,8.28,0,0,0-1.147-.051c-2.447,0-3.662,1.114-3.662,3.341v3.257c0,2.582,1.316,3.864,3.932,3.864h3.8V23.541a3.344,3.344,0,0,0-.861-2.548A4.045,4.045,0,0,0,294.6,20.2Zm.675,13.128h-.861a.745.745,0,0,1-.742-.422,6.853,6.853,0,0,1-.253-2.379V27.574a8.045,8.045,0,0,1,.084-1.417c.135-.557.422-.844.844-.844h.068l.861.051Z" transform="translate(-241.479 -16.808)" fill="#172840"/>
        <path id="Path_464" data-name="Path 464" d="M348.168,16.89a1.032,1.032,0,0,1-1.114-.709,7.708,7.708,0,0,1-.118-1.7V.336L344,.1V14.713c0,2.227,1.2,3.341,3.577,3.341L348.708,18V16.856C348.506,16.873,348.337,16.89,348.168,16.89Z" transform="translate(-285.951 -0.1)" fill="#172840"/>
      </g>
      <rect id="Rectangle_141" data-name="Rectangle 141" width="4.843" height="4.303" transform="translate(65.895 12.067)" fill="#f0b440"/>
      <path id="Path_465" data-name="Path 465" d="M379.441,89.821V88.1H377.5v3.1h3.476V89.821Z" transform="translate(-313.798 -73.232)" fill="#f0b440"/>
    </g>
    <path id="Path_466" data-name="Path 466" d="M211.924,1.584V.2H211.3V2.208h2.9V1.584Z" transform="translate(-175.644 -0.176)" fill="#172840"/>
  </g>
</svg>
