<svg xmlns="http://www.w3.org/2000/svg" width="23.696" height="23.65" viewBox="0 0 23.696 23.65">
  <g id="add" transform="translate(0 -0.499)">
    <g id="Group_2951" data-name="Group 2951" transform="translate(0 0.499)">
      <g id="Group_2950" data-name="Group 2950" transform="translate(0 0)">
        <path id="Path_1057" data-name="Path 1057" d="M11.825.5a6.834,6.834,0,0,0-3.868,12.47A11.844,11.844,0,0,0,0,24.149H1.848a9.989,9.989,0,0,1,9.977-9.977A6.836,6.836,0,0,0,11.825.5Zm0,11.825a4.989,4.989,0,1,1,4.989-4.989A4.994,4.994,0,0,1,11.825,12.324Z" transform="translate(0 -0.499)" fill="#f0b440"/>
      </g>
    </g>
    <g id="Group_2953" data-name="Group 2953" transform="translate(14.088 14.541)">
      <g id="Group_2952" data-name="Group 2952">
        <path id="Path_1058" data-name="Path 1058" d="M310.133,307.786v-3.88h-1.848v3.88H304.4v1.848h3.88v3.88h1.848v-3.88h3.88v-1.848Z" transform="translate(-304.405 -303.906)" fill="#f0b440"/>
      </g>
    </g>
  </g>
</svg>
