<svg id="menu_-_addresses" data-name="menu - addresses" xmlns="http://www.w3.org/2000/svg" width="24" height="24" viewBox="0 0 24 24">
  <rect id="Rectangle_260" data-name="Rectangle 260" width="24" height="24" transform="translate(0 0)" fill="#fff" opacity="0"/>
  <path id="Path_897" data-name="Path 897" d="M61.707,10.723V9.3h4.372a1.772,1.772,0,0,0,1.01-.315l1.559-1.075a1.78,1.78,0,0,0,0-2.93L67.089,3.908a1.772,1.772,0,0,0-1.01-.315H61.707V1.821a1.821,1.821,0,0,0-3.643,0V3.593H50.833a.7.7,0,0,0-.7.7V8.6a.7.7,0,0,0,.7.7h7.231V22.579H56.186a.7.7,0,1,0,0,1.405h7.4a.7.7,0,1,0,0-1.405H61.707V10.723Zm0,4.672H58.064V11.113h3.643ZM51.535,5H66.079a.372.372,0,0,1,.212.066L67.851,6.14a.374.374,0,0,1,0,.616L66.291,7.832a.373.373,0,0,1-.212.066H51.535Zm7.934-3.177a.416.416,0,0,1,.832,0V3.593h-.832Zm0,7.482H60.3v1.42h-.832ZM60.3,22.579h-.832V16.433H60.3Z" transform="translate(-47.706 0)" fill="#acb1b8"/>
  <path id="Path_1063" data-name="Path 1063" d="M68.715,10.723H53.469a1.772,1.772,0,0,0-1.01.315L50.9,12.113a1.78,1.78,0,0,0,0,2.93l1.559,1.075a1.772,1.772,0,0,0,1.01.315H68.715a.7.7,0,0,0,.7-.7v-4.3A.7.7,0,0,0,68.715,10.723Zm-.7,4.3H53.469a.372.372,0,0,1-.212-.066L51.7,13.886a.374.374,0,0,1,0-.616l1.559-1.075a.373.373,0,0,1,.212-.066H68.012Z" transform="translate(-47.706)" fill="#f0b440"/>
</svg>
