<svg id="XMLID_2_" xmlns="http://www.w3.org/2000/svg" width="22" height="16.36" viewBox="0 0 22 16.36">
  <path id="XMLID_4_" d="M3.414,110H15a1,1,0,1,0,0-2H3.414l1.293-1.293a1,1,0,0,0-1.414-1.414l-3,3c-.023.023-.045.047-.066.073l-.014.019c-.015.019-.03.039-.044.059l-.011.018c-.014.021-.027.043-.039.066l-.007.014c-.013.024-.025.049-.035.075l0,.01c-.011.027-.021.054-.029.082l0,.011c-.008.028-.015.055-.021.084,0,.008,0,.017,0,.026,0,.024-.008.047-.011.071a.986.986,0,0,0,0,.2c0,.024.007.048.011.072,0,.008,0,.017,0,.025.006.029.013.057.021.085l0,.01c.009.028.019.056.03.083l0,.009c.011.026.023.051.036.075l.006.013c.012.023.026.045.04.066l.011.018c.014.021.029.04.044.06l.014.019c.021.025.043.05.066.073l3,3a1,1,0,0,0,1.414-1.414Z" transform="translate(0 -100.82)" fill="#ff1643"/>
  <path id="XMLID_5_" d="M109.808,42.3a8.174,8.174,0,0,0-6.793,3.622,1,1,0,0,0,1.66,1.116,6.18,6.18,0,1,1,.008,6.9,1,1,0,0,0-1.657,1.12A8.18,8.18,0,1,0,109.808,42.3Z" transform="translate(-95.989 -42.299)" fill="#fec0cd"/>
</svg>
