<svg id="menu_-_credit" data-name="menu - credit" xmlns="http://www.w3.org/2000/svg" width="24" height="24" viewBox="0 0 24 24">
  <rect id="Rectangle_260" data-name="Rectangle 260" width="24" height="24" fill="#fff" opacity="0"/>
  <g id="wallet" transform="translate(2.305)">
    <path id="Path_634" data-name="Path 634" d="M49.057,8.148a2.42,2.42,0,0,0-2.417,2.418V21.577a2.42,2.42,0,0,0,2.417,2.417H63.4a2.42,2.42,0,0,0,2.417-2.417V10.565A2.418,2.418,0,0,0,64.69,8.52ZM64.415,21.577A1.012,1.012,0,0,1,63.4,22.588H49.057a1.012,1.012,0,0,1-1.011-1.011V10.565a1.013,1.013,0,0,1,1.011-1.012H63.4a1.013,1.013,0,0,1,1.011,1.012v2.726H61.522a2.779,2.779,0,0,0,0,5.558h2.893Zm0-4.132H61.522a1.373,1.373,0,0,1,0-2.746h2.893Z" transform="translate(-46.64 -0.001)" fill="#acb1b8"/>
    <path id="Path_635" data-name="Path 635" d="M355.26,328.634a.7.7,0,1,0,.7-.7A.715.715,0,0,0,355.26,328.634Z" transform="translate(-340.797 -312.564)" fill="#acb1b8"/>
    <path id="Path_1062" data-name="Path 1062" d="M66.056,6.16,60.1.206a.7.7,0,0,0-.994,0l-7.93,8.012h0c-1.453-.031,11.016.3,13.5.3l1.377-1.362a.7.7,0,0,0,0-.994ZM59.606,1.7l.9.9a2.113,2.113,0,0,1-1.809,0ZM57.671,3.632a3.514,3.514,0,0,0,3.869,0l1.09,1.09a3.52,3.52,0,0,0-.25,3.426H60.074a2.5,2.5,0,0,0-4.906,0H53.155Zm.93,4.516H56.642a1.1,1.1,0,0,1,1.959,0Zm5.059-.586a2.113,2.113,0,0,1,0-1.811l.905.905Z" transform="translate(-46.64)" fill="#f0b440"/>
  </g>
</svg>
