<svg id="menu_-_return" data-name="menu - return" xmlns="http://www.w3.org/2000/svg" width="24" height="24" viewBox="0 0 24 24">
  <rect id="Rectangle_260" data-name="Rectangle 260" width="24" height="24" fill="#fff" opacity="0"/>
  <path id="return" d="M19.213,0a.7.7,0,0,1,.7.7V10.03a7.37,7.37,0,1,1-9.887,9.887H.7a.7.7,0,0,1-.7-.7V.7A.7.7,0,0,1,.7,0Zm-5.9,1.406V5.345a.7.7,0,0,1-1.066.6L9.958,4.786,7.626,5.971a.7.7,0,0,1-1.017-.626l0-3.939h-5.2v17.1H9.5A7.372,7.372,0,0,1,18.51,9.5V1.406Zm-.9,11a5.963,5.963,0,1,0,8.433,0A5.964,5.964,0,0,0,12.408,12.408Zm-.5-11H8.013V4.2l1.627-.827a.7.7,0,0,1,.633,0L11.9,4.2Zm0,0" fill="#acb1b8" fill-rule="evenodd"/>
  <path id="return-2" data-name="return" d="M14.387,19.729h3.28a2.742,2.742,0,0,0,0-5.483H15.713l.413-.413a.7.7,0,0,0-.994-.988L13.52,14.459a.7.7,0,0,0,0,.991l1.615,1.612a.7.7,0,0,0,.988-.994l-.418-.417h1.958a1.336,1.336,0,0,1,0,2.671h-3.28a.7.7,0,0,0,0,1.406Z" fill="#f0b440" fill-rule="evenodd"/>
</svg>
