<svg id="menu_-_Claims" data-name="menu - Claims" xmlns="http://www.w3.org/2000/svg" width="24" height="24" viewBox="0 0 24 24">
  <rect id="Rectangle_260" data-name="Rectangle 260" width="24" height="24" fill="#fff" opacity="0"/>
  <g id="sticker" transform="translate(0.004 0.127)">
    <g id="Group_1556" data-name="Group 1556" transform="translate(0 0)">
      <g id="Group_1555" data-name="Group 1555" transform="translate(0)">
        <path id="Path_636" data-name="Path 636" d="M23.986,11.867a.707.707,0,0,0-.276-.489l-1.9-1.439L22.5,7.657a.706.706,0,0,0-.515-.893l-2.322-.542-.3-2.365a.706.706,0,0,0-.834-.606L16.193,3.7,14.96,1.659a.707.707,0,0,0-1.008-.214L12,2.808,10.039,1.445a.707.707,0,0,0-1.008.214L7.8,3.7,5.457,3.251a.706.706,0,0,0-.834.606l-.3,2.365L2,6.764a.706.706,0,0,0-.515.893l.691,2.281L.28,11.378A.706.706,0,0,0,.173,12.4l1.559,1.8L.582,16.294a.706.706,0,0,0,.319.98l2.158,1.013-.2,2.375a.707.707,0,0,0,.69.766l2.384.048.782,2.252a.706.706,0,0,0,.942.419l2.2-.926,1.63,1.739a.706.706,0,0,0,1.031,0l1.63-1.739,2.2.926a.706.706,0,0,0,.942-.419l.782-2.252,2.383-.048a.707.707,0,0,0,.69-.766l-.2-2.375,2.158-1.013a.706.706,0,0,0,.319-.981l-1.151-2.088,1.56-1.8A.707.707,0,0,0,23.986,11.867Zm-3.2,2.59,1.024,1.859-1.921.9a.707.707,0,0,0-.4.7l.18,2.114-2.122.042a.707.707,0,0,0-.653.475l-.7,2-1.955-.824a.706.706,0,0,0-.79.168L12,23.445,10.544,21.9a.706.706,0,0,0-.79-.168L7.8,22.553l-.7-2a.706.706,0,0,0-.653-.475l-2.122-.042.18-2.114a.707.707,0,0,0-.4-.7l-1.921-.9,1.024-1.859a.707.707,0,0,0-.084-.8L1.735,12.049l1.692-1.281A.707.707,0,0,0,3.676,10L3.06,7.968l2.067-.483a.707.707,0,0,0,.54-.6L5.931,4.78l2.084.4a.706.706,0,0,0,.738-.329l1.1-1.816,1.741,1.213a.706.706,0,0,0,.808,0l1.741-1.213,1.1,1.816a.706.706,0,0,0,.738.328l2.084-.4.264,2.106a.707.707,0,0,0,.54.6l2.067.483L20.315,10a.706.706,0,0,0,.25.768l1.692,1.281-1.388,1.605A.707.707,0,0,0,20.784,14.457Z" transform="translate(-0.001 -1.318)" fill="#acb1b8"/>
      </g>
    </g>
    <g id="Group_1558" data-name="Group 1558" transform="translate(5.235 5.173)">
      <g id="Group_1557" data-name="Group 1557">
        <path id="Path_637" data-name="Path 637" d="M118.482,111.722a6.76,6.76,0,1,0,6.76,6.76A6.768,6.768,0,0,0,118.482,111.722Zm0,12.107a5.347,5.347,0,1,1,5.347-5.347A5.353,5.353,0,0,1,118.482,123.829Z" transform="translate(-111.722 -111.722)" fill="#f0b440"/>
      </g>
    </g>
    <g id="Group_1560" data-name="Group 1560" transform="translate(9.018 9.713)">
      <g id="Group_1559" data-name="Group 1559" transform="translate(0 0)">
        <path id="Path_638" data-name="Path 638" d="M198.22,208.829a.707.707,0,0,0-1,0l-2.527,2.527-1.014-1.014a.706.706,0,1,0-1,1l1.513,1.513a.706.706,0,0,0,1,0l3.027-3.027A.707.707,0,0,0,198.22,208.829Z" transform="translate(-192.474 -208.622)" fill="#f0b440"/>
      </g>
    </g>
  </g>
</svg>
