<svg id="office" xmlns="http://www.w3.org/2000/svg" width="24" height="24" viewBox="0 0 24 24">
  <rect id="Rectangle_265" data-name="Rectangle 265" width="24" height="24" fill="#fff" opacity="0"/>
  <g id="business-and-trade" transform="translate(2.15 1.986)">
    <path id="Path_834" data-name="Path 834" d="M10.387,1.576,1.626.2A1.378,1.378,0,0,0,.494.518,1.5,1.5,0,0,0,0,1.626v17.41a.815.815,0,0,0,.8.826H3.388V15.524a1.418,1.418,0,0,1,1.4-1.446H6.776a1.418,1.418,0,0,1,1.4,1.446v4.338h3.388V3.006a1.433,1.433,0,0,0-1.172-1.429Zm-6,10.642h-1.2a.62.62,0,0,1,0-1.239h1.2a.62.62,0,0,1,0,1.239Zm0-2.479h-1.2a.62.62,0,0,1,0-1.239h1.2a.62.62,0,0,1,0,1.239Zm0-2.479h-1.2a.62.62,0,0,1,0-1.239h1.2a.62.62,0,0,1,0,1.239Zm0-2.479h-1.2a.62.62,0,0,1,0-1.239h1.2a.62.62,0,0,1,0,1.239ZM8.37,12.218h-1.2a.62.62,0,0,1,0-1.239h1.2a.62.62,0,0,1,0,1.239Zm0-2.479h-1.2a.62.62,0,0,1,0-1.239h1.2a.62.62,0,0,1,0,1.239Zm0-2.479h-1.2a.62.62,0,0,1,0-1.239h1.2a.62.62,0,0,1,0,1.239Zm0-2.479h-1.2a.62.62,0,0,1,0-1.239h1.2a.62.62,0,0,1,0,1.239Z" transform="translate(0 -0.178)" fill="#acb1b8"/>
    <path id="Path_835" data-name="Path 835" d="M21.176,10.583,15.5,9.351v12.1h5.381a1.423,1.423,0,0,0,1.4-1.446V12A1.428,1.428,0,0,0,21.176,10.583Zm-1.889,8.393h-1.2a.62.62,0,0,1,0-1.239h1.2a.62.62,0,0,1,0,1.239Zm0-2.479h-1.2a.62.62,0,0,1,0-1.239h1.2a.62.62,0,0,1,0,1.239Zm0-2.479h-1.2a.62.62,0,0,1,0-1.239h1.2a.62.62,0,0,1,0,1.239Z" transform="translate(-3.144 -1.772)" fill="#acb1b8"/>
  </g>
</svg>
