<svg xmlns="http://www.w3.org/2000/svg" width="34" height="34" viewBox="0 0 34 34">
  <g id="Group_3084" data-name="Group 3084" transform="translate(-909 -4094)">
    <g id="Ellipse_8" data-name="Ellipse 8" transform="translate(909 4094)" fill="#fff" stroke="#d1d1d1" stroke-width="1">
      <circle cx="17" cy="17" r="17" stroke="none"/>
      <circle cx="17" cy="17" r="16.5" fill="none"/>
    </g>
    <g id="phone" transform="translate(919.172 4006.18)">
      <g id="Group_1628" data-name="Group 1628" transform="translate(-0.001 98.612)">
        <g id="Group_1627" data-name="Group 1627" transform="translate(0 0)">
          <path id="Path_651" data-name="Path 651" d="M12.635,108.039l-1.609-1.609a1.339,1.339,0,0,0-1.894,0l-.561.561a1.5,1.5,0,0,1-1.371.317,3.594,3.594,0,0,1-1.839-1.029,3.594,3.594,0,0,1-1.029-1.839,1.5,1.5,0,0,1,.317-1.371l.561-.561a1.339,1.339,0,0,0,0-1.894L3.6,99a1.339,1.339,0,0,0-1.894,0l-.561.561a3.866,3.866,0,0,0-1.037,1.989,6.033,6.033,0,0,0,.03,2.417A10.048,10.048,0,0,0,7.667,111.5,6.771,6.771,0,0,0,9,111.64a5.328,5.328,0,0,0,1.087-.108,3.866,3.866,0,0,0,1.989-1.037l.561-.561A1.341,1.341,0,0,0,12.635,108.039Zm-.683,1.211-.561.561a3.85,3.85,0,0,1-3.534.743,8.834,8.834,0,0,1-4.351-2.421,8.834,8.834,0,0,1-2.421-4.351,3.851,3.851,0,0,1,.743-3.534l.561-.561a.373.373,0,0,1,.528,0L4.526,101.3a.373.373,0,0,1,0,.528l-.561.561a2.43,2.43,0,0,0-.584,2.228,4.565,4.565,0,0,0,1.3,2.349,4.564,4.564,0,0,0,2.349,1.3,2.43,2.43,0,0,0,2.228-.584l.561-.561a.373.373,0,0,1,.528,0l1.609,1.609A.374.374,0,0,1,11.952,109.25Z" transform="translate(0.001 -98.612)" fill="#172840"/>
        </g>
      </g>
    </g>
  </g>
</svg>
