<svg id="phone_min" data-name="phone min" xmlns="http://www.w3.org/2000/svg" width="16" height="16" viewBox="0 0 16 16">
  <path id="Path_900" data-name="Path 900" d="M0,0H16V16H0Z" transform="translate(0 16) rotate(-90)" fill="#fff" opacity="0"/>
  <g id="phone" transform="translate(0.584 0.508)">
    <path id="Path_694" data-name="Path 694" d="M28.473,28.355a3.426,3.426,0,0,1-1.725.471h0c-1.328,0-2.571-.961-4.081-2.471l-4.013-4.012c-1.192-1.193-1.97-2-2.222-3.089a3.441,3.441,0,0,1,.37-2.568,1.29,1.29,0,0,0-.542.325l-.667.666a3.371,3.371,0,0,0-1.016,3.433,7.529,7.529,0,0,0,2.175,3.434l3.863,3.862c1.51,1.51,2.949,2.275,4.277,2.275h0a3.393,3.393,0,0,0,2.587-1.115l.667-.667A1.291,1.291,0,0,0,28.473,28.355Z" transform="translate(-14.038 -16.21)" fill="#f0b440"/>
    <g id="Group_1802" data-name="Group 1802">
      <path id="Path_695" data-name="Path 695" d="M14.484,13.226a1.707,1.707,0,0,0,.226-1.936A8.041,8.041,0,0,0,12.113,9l-.006,0a1.874,1.874,0,0,0-.921-.261,1.309,1.309,0,0,0-1.134.616c-.29.345-.525.6-.589.661a.993.993,0,0,1-.492.2l-.046-.045L4.913,6.156C3.75,4.992,3.026,4.23,2.8,3.27a3.034,3.034,0,0,1,.238-2.1.878.878,0,0,1,.094-.005.888.888,0,0,1,.409.1,5.984,5.984,0,0,1,1.794,2.1l.013.022a.9.9,0,0,1,.13.656.456.456,0,0,1-.215.275.422.422,0,0,0,.432.725,1.291,1.291,0,0,0,.6-.774,1.715,1.715,0,0,0-.21-1.3l0-.007L6.072,2.95A6.832,6.832,0,0,0,3.939.519a1.737,1.737,0,0,0-.8-.2A1.7,1.7,0,0,0,2.088.679l-.013.01L2.011.742,1.995.756C1.97.778,1.946.8,1.922.824l-.667.666A3.8,3.8,0,0,0,.127,5.316q.025.109.056.219c.013.045.027.091.041.137a7.311,7.311,0,0,0,1.4,2.422l.083.1L1.8,8.3l.135.153q.174.193.363.387l.116.117,3.863,3.862q.224.224.446.427a6.331,6.331,0,0,0,4.129,1.972h0a3.825,3.825,0,0,0,2.886-1.238l.666-.666c.023-.023.046-.047.068-.072ZM9.952,10.7l.009-.006a8.343,8.343,0,0,0,.759-.825.423.423,0,0,0,.039-.055.46.46,0,0,1,.428-.235,1.032,1.032,0,0,1,.5.148,7.149,7.149,0,0,1,2.278,1.958.875.875,0,0,1,.1.5,2.986,2.986,0,0,1-1.353.328,4.9,4.9,0,0,1-3.049-1.641A2.529,2.529,0,0,0,9.952,10.7ZM4.316,6.753l4.013,4.012c1.558,1.557,2.9,2.594,4.381,2.594a3.79,3.79,0,0,0,.485-.031l-.051.051a2.967,2.967,0,0,1-2.289.991h0c-1.212,0-2.55-.724-3.978-2.152L3.012,8.356A7.128,7.128,0,0,1,.949,5.126a2.949,2.949,0,0,1,.9-3.039l.05-.05a4.017,4.017,0,0,0,.08,1.423C2.256,4.644,3.047,5.483,4.316,6.753Z" transform="translate(0 -0.321)" fill="#172840"/>
      <path id="Path_696" data-name="Path 696" d="M283.96,140.933a.433.433,0,0,1-.061,0,.422.422,0,0,1-.357-.478,1.189,1.189,0,0,0-1.349-1.348.422.422,0,0,1-.121-.835,2.033,2.033,0,0,1,2.305,2.305A.422.422,0,0,1,283.96,140.933Z" transform="translate(-273.506 -134.229)" fill="#172840"/>
      <path id="Path_697" data-name="Path 697" d="M289.836,86.69H289.8a.422.422,0,0,1-.389-.452,2.684,2.684,0,0,0-2.878-2.878.422.422,0,0,1-.063-.842,3.529,3.529,0,0,1,3.783,3.783A.422.422,0,0,1,289.836,86.69Z" transform="translate(-277.751 -80.113)" fill="#172840"/>
    </g>
  </g>
</svg>
