<svg xmlns="http://www.w3.org/2000/svg" width="15" height="15" viewBox="0 0 15 15">
  <g id="Group_1747" data-name="Group 1747" transform="translate(-61.586 -926.086)">
    <path id="Path_" data-name="Path " d="M.406.406A1.385,1.385,0,0,1,2.234.29l.13.115L10.2,8.242a1.385,1.385,0,0,1-1.829,2.074l-.13-.115L.406,2.365A1.385,1.385,0,0,1,.406.406Z" transform="translate(69.086 926.086) rotate(45)" fill="currentColor"/>
    <path id="Path_2" data-name="Path " d="M8.242.406a1.385,1.385,0,0,1,2.074,1.829l-.115.13L2.365,10.2A1.385,1.385,0,0,1,.29,8.372l.115-.13Z" transform="translate(69.086 926.086) rotate(45)" fill="currentColor"/>
  </g>
</svg>
