<svg id="return" xmlns="http://www.w3.org/2000/svg" width="140" height="140" viewBox="0 0 140 140">
  <rect id="Rectangle_266" data-name="Rectangle 266" width="140" height="140" fill="#fff" opacity="0"/>
  <g id="Group_2173" data-name="Group 2173" transform="translate(-661.604 -308.045)">
    <g id="Untitled-6" transform="translate(674.477 313.112)">
      <path id="Path_791" data-name="Path 791" d="M.462,55.963C-.757,29.278,37.576-4.941,70.858.609c35.232,5.9,65.193,71.128,31.79,96.041C69.244,121.681,1.387,111.915.462,55.963Z" transform="translate(-3.713 17.23)" fill="#f4f4f4"/>
      <path id="Path_792" data-name="Path 792" d="M.423,20.672c1.889,3.66,32.942-4.841,36.13-10.981S24.038-1.408,15.419.363-2.056,15.949.423,20.672Z" transform="translate(17.905 0)" fill="#f4f4f4"/>
    </g>
    <g id="_12-Return" data-name="12-Return" transform="translate(684.139 350.488)">
      <g id="filled" transform="translate(0 0)">
        <path id="Path_785" data-name="Path 785" d="M78.934,132H54.072a2.072,2.072,0,1,0,0,4.144H78.934a2.072,2.072,0,1,0,0-4.144Z" transform="translate(-43.713 -109.9)" fill="#acb1b8"/>
        <path id="Path_786" data-name="Path 786" d="M62.359,180H54.072a2.072,2.072,0,1,0,0,4.144h8.287a2.072,2.072,0,0,0,0-4.144Z" transform="translate(-43.713 -149.613)" fill="#acb1b8"/>
        <path id="Path_787" data-name="Path 787" d="M79.968,45.354V6.072A2.072,2.072,0,0,0,77.9,4H6.072A2.072,2.072,0,0,0,4,6.072V64.084a2.072,2.072,0,0,0,2.072,2.072H48.3a21.409,21.409,0,1,0,31.668-20.8ZM75.824,43.6a21.4,21.4,0,0,0-15.194,1.055V8.144H75.824ZM39.912,8.144V17.01l-5.559-1.853a2.072,2.072,0,0,0-1.31,0L27.481,17.01V8.144ZM8.144,46.818H39.912v6.906H8.144Zm0,11.05h33.84A2.072,2.072,0,0,0,44.056,55.8V44.747a2.072,2.072,0,0,0-2.072-2.072H8.144V8.144H23.337V19.884a2.086,2.086,0,0,0,2.727,1.966L33.7,19.306l7.632,2.544a2.086,2.086,0,0,0,2.727-1.966V8.144H56.487V47.179A21.4,21.4,0,0,0,48.3,62.012H8.144ZM69.609,81.349A17.266,17.266,0,1,1,86.874,64.084,17.265,17.265,0,0,1,69.609,81.349Z" transform="translate(-4 -4)" fill="#acb1b8"/>
        <path id="Path_788" data-name="Path 788" d="M339.884,295.337h-9.669a2.074,2.074,0,0,1-2.072-2.072v-5.525a2.074,2.074,0,0,1,2.072-2.072h4.667l-1.988,1.988a2.072,2.072,0,1,0,2.93,2.93l5.525-5.525a2.072,2.072,0,0,0,0-2.93l-5.525-5.525a2.072,2.072,0,1,0-2.93,2.93l1.988,1.988h-4.667A6.222,6.222,0,0,0,324,287.741v5.525a6.223,6.223,0,0,0,6.216,6.216h9.669a2.072,2.072,0,1,0,0-4.144Z" transform="translate(-268.75 -229.038)" fill="#f0b440"/>
      </g>
    </g>
  </g>
</svg>
