<svg xmlns="http://www.w3.org/2000/svg" width="18.55" height="20.042" viewBox="0 0 18.55 20.042">
  <path id="share" d="M23.225,12.479a3.775,3.775,0,0,0-2.909,1.369L15.8,11.284a3.773,3.773,0,0,0,0-2.526l4.515-2.564a3.777,3.777,0,1,0-.654-1.15L15.146,7.609a3.781,3.781,0,1,0,0,4.825L19.662,15a3.781,3.781,0,1,0,3.564-2.519Zm0-11.156a2.459,2.459,0,1,1-2.458,2.458A2.461,2.461,0,0,1,23.225,1.323ZM12.238,12.479A2.458,2.458,0,1,1,14.7,10.021,2.461,2.461,0,0,1,12.238,12.479Zm10.988,6.24a2.458,2.458,0,1,1,2.458-2.458A2.461,2.461,0,0,1,23.225,18.719Z" transform="translate(-8.456)" fill="#4d5a6c"/>
</svg>
