<svg id="Component_115" data-name="Component 115" xmlns="http://www.w3.org/2000/svg" width="76" height="77" viewBox="0 0 76 77">
  <rect id="Rectangle_266" data-name="Rectangle 266" width="76" height="77" fill="#fff" opacity="0"/>
  <g id="Group_2165" data-name="Group 2165" transform="translate(4.663 4.26)">
    <g id="Untitled-2" transform="matrix(-0.017, 1, -1, -0.017, 67.127, 6.929)">
      <path id="Path_729" data-name="Path 729" d="M8.847,60.1C-1.679,50.829-3.715,20.035,7.684,6.208c12.1-14.65,49.025-1.943,49.258,23.17S19.547,69.44,8.847,60.1Z" transform="translate(4.624 3.16)" fill="#f4f4f4"/>
      <path id="Path_730" data-name="Path 730" d="M7.541.39C3.2-1.293-.359,2.851.029,5.571s9,1.554,10.1.259C11.232,4.47,8.706.844,7.541.39Z" transform="matrix(0.695, -0.719, 0.719, 0.695, 0, 7.483)" fill="#f4f4f4"/>
    </g>
    <g id="shopping-cart_1_" data-name="shopping-cart (1)" transform="translate(2.425 13)">
      <path id="Path_857" data-name="Path 857" d="M59.513,61.052a4.174,4.174,0,0,0-3.284-1.575H44.6l-4.466-10a1.77,1.77,0,1,0-3.244,1.417l3.848,8.583H19.677l3.693-8.583a1.77,1.77,0,1,0-3.244-1.417l-4.312,10H4.18A4.174,4.174,0,0,0,.9,61.052,4.075,4.075,0,0,0,.1,64.518L6.317,91.655a4.147,4.147,0,0,0,4.076,3.218H50.016a4.147,4.147,0,0,0,4.076-3.218l6.213-27.137A4.075,4.075,0,0,0,59.513,61.052Zm-9.5,30.282H10.393a.633.633,0,0,1-.626-.469L3.554,63.728a.54.54,0,0,1,.11-.47.643.643,0,0,1,.515-.241H14.269l-.464,1.062a1.77,1.77,0,1,0,3.244,1.417l1.082-2.478H42.279l1.082,2.478A1.77,1.77,0,0,0,46.6,64.078l-.464-1.062H56.23a.643.643,0,0,1,.515.241.541.541,0,0,1,.11.47L50.643,90.865a.633.633,0,0,1-.626.469Z" transform="translate(0 -48.415)" fill="#acb1b8"/>
      <path id="Path_858" data-name="Path 858" d="M152.77,266.717a1.77,1.77,0,0,0-1.77,1.77v12.979a1.77,1.77,0,0,0,3.54,0V268.487A1.77,1.77,0,0,0,152.77,266.717Z" transform="translate(-133.184 -244.446)" fill="#acb1b8"/>
      <path id="Path_859" data-name="Path 859" d="M242.77,266.717a1.77,1.77,0,0,0-1.77,1.77v12.979a1.77,1.77,0,0,0,3.54,0V268.487A1.77,1.77,0,0,0,242.77,266.717Z" transform="translate(-212.565 -244.446)" fill="#acb1b8"/>
      <path id="Path_860" data-name="Path 860" d="M332.77,266.717a1.77,1.77,0,0,0-1.77,1.77v12.979a1.77,1.77,0,0,0,3.54,0V268.487A1.77,1.77,0,0,0,332.77,266.717Z" transform="translate(-291.946 -244.446)" fill="#acb1b8"/>
    </g>
    <g id="Group_2001" data-name="Group 2001" transform="translate(22.074 0)">
      <path id="Path_777" data-name="Path 777" d="M227.489,6.254a1.489,1.489,0,0,0,1.489-1.489V1.489a1.489,1.489,0,1,0-2.978,0V4.765A1.489,1.489,0,0,0,227.489,6.254Z" transform="translate(-216.783)" fill="#f0b440"/>
      <path id="Path_778" data-name="Path 778" d="M133.688,44.525l2.51,2.106a1.489,1.489,0,0,0,1.914-2.281l-2.51-2.106a1.489,1.489,0,1,0-1.914,2.281Z" transform="translate(-133.156 -37.736)" fill="#f0b440"/>
      <path id="Path_779" data-name="Path 779" d="M296.01,46.631l2.51-2.106a1.489,1.489,0,1,0-1.914-2.281L294.1,44.35a1.489,1.489,0,1,0,1.914,2.281Z" transform="translate(-277.64 -37.736)" fill="#f0b440"/>
    </g>
  </g>
</svg>
