<svg id="Group_681" data-name="Group 681" xmlns="http://www.w3.org/2000/svg" width="32.125" height="22" viewBox="0 0 32.125 22">
  <path id="Path_337" data-name="Path 337" d="M193.915,198.047a4.522,4.522,0,1,1,4.223-4.223A4.515,4.515,0,0,1,193.915,198.047Z" transform="translate(-177.532 -182.494)" fill="#bdbdbd"/>
  <path id="Path_338" data-name="Path 338" d="M11.151,73.273A17.29,17.29,0,0,0-4.939,84.247c1.522,5.151,8.165,11.026,16.09,11.026s14.234-5.582,16.035-11.085C25.669,79.487,19.739,73.273,11.151,73.273Zm.432,17.664a6.634,6.634,0,1,1,6.188-6.188,6.638,6.638,0,0,1-6.188,6.188Z" transform="translate(4.939 -73.273)" fill="#bdbdbd"/>
</svg>
