<svg xmlns="http://www.w3.org/2000/svg" width="34" height="34" viewBox="0 0 34 34">
  <g id="Group_3093" data-name="Group 3093" transform="translate(12653 23172)">
    <g id="Ellipse_35" data-name="Ellipse 35" transform="translate(-12653 -23172)" fill="#fff" stroke="#d1d1d1" stroke-width="1">
      <circle cx="17" cy="17" r="17" stroke="none"/>
      <circle cx="17" cy="17" r="16.5" fill="none"/>
    </g>
    <g id="store_2_" data-name="store (2)" transform="translate(-12653.78 -23171.682)">
      <g id="Group_3092" data-name="Group 3092" transform="translate(11.1 11)">
        <path id="Path_1081" data-name="Path 1081" d="M23.906,11H11.656a.555.555,0,0,0-.556.556V23.806a.555.555,0,0,0,.556.556H23.906a.555.555,0,0,0,.556-.556V11.556A.557.557,0,0,0,23.906,11Zm-.559,2.378a.974.974,0,0,1-1.947,0V12.113h1.95v1.265Zm-3.065,0a.974.974,0,1,1-1.947,0V12.113h1.95v1.265Zm-3.062,0a.974.974,0,1,1-1.947,0V12.113h1.95v1.265Zm-3.065,0a.974.974,0,0,1-1.947,0V12.113h1.95v1.265Zm2.64,9.872V19.413h1.95v3.837Zm3.062,0V18.856A.555.555,0,0,0,19.3,18.3H16.238a.555.555,0,0,0-.556.556v4.393H12.2V15.224a2.078,2.078,0,0,0,2.5-.428,2.08,2.08,0,0,0,3.06,0,2.08,2.08,0,0,0,3.06,0,2.084,2.084,0,0,0,1.53.671,2.052,2.052,0,0,0,.974-.243v8.025H19.856Z" transform="translate(-11.1 -11)" fill="#172840" stroke="#fff" stroke-width="0.1"/>
      </g>
    </g>
  </g>
</svg>
