<svg xmlns="http://www.w3.org/2000/svg" width="34.866" height="35.752" viewBox="0 0 34.866 35.752">
  <g id="photo" transform="translate(0.076 -35.721)">
    <g id="Group_1443" data-name="Group 1443" transform="translate(-0.076 -0.279)">
      <g id="Group_1434" data-name="Group 1434" transform="translate(24.164 36)">
        <g id="Group_1433" data-name="Group 1433">
          <path id="Path_756" data-name="Path 756" d="M368,32v3.058h7.645v6.116H378.7V32Z" transform="translate(-368 -32)" fill="#718b91"/>
        </g>
      </g>
      <g id="Group_1436" data-name="Group 1436" transform="translate(0 62.578)">
        <g id="Group_1435" data-name="Group 1435">
          <path id="Path_757" data-name="Path 757" d="M3.058,358.116V352H0v9.173H10.7v-3.058Z" transform="translate(0 -352)" fill="#718b91"/>
        </g>
      </g>
      <g id="Group_1438" data-name="Group 1438" transform="translate(24.164 62.578)">
        <g id="Group_1437" data-name="Group 1437">
          <path id="Path_758" data-name="Path 758" d="M375.644,352v6.116H368v3.058h10.7V352Z" transform="translate(-368 -352)" fill="#718b91"/>
        </g>
      </g>
      <g id="Group_1440" data-name="Group 1440" transform="translate(0 36)">
        <g id="Group_1439" data-name="Group 1439">
          <path id="Path_759" data-name="Path 759" d="M0,32v9.173H3.058V35.058H10.7V32Z" transform="translate(0 -32)" fill="#718b91"/>
        </g>
      </g>
    </g>
    <g id="Group_1442" data-name="Group 1442" transform="translate(10.925 47.722)">
      <g id="Group_1441" data-name="Group 1441" transform="translate(0 0)">
        <path id="Path_760" data-name="Path 760" d="M183.645,180.587V176h-3.058v4.587H176v3.058h4.587v4.587h3.058v-4.587h4.587v-3.058Z" transform="translate(-176 -176)" fill="#718b91"/>
      </g>
    </g>
  </g>
</svg>
