<svg xmlns="http://www.w3.org/2000/svg" width="8.843" height="5.223" viewBox="0 0 8.843 5.223">
  <g id="down-arrow" transform="translate(15.843 5.223) rotate(180)">
    <g id="Group_1406" data-name="Group 1406" transform="translate(7)">
      <path id="Path_468" data-name="Path 468" d="M8.7.437,8.412.145a.485.485,0,0,0-.684,0l-3.3,3.3L1.115.141a.485.485,0,0,0-.684,0l-.29.29a.484.484,0,0,0,0,.684L4.08,5.068a.494.494,0,0,0,.343.155h0a.494.494,0,0,0,.342-.155L8.7,1.126A.489.489,0,0,0,8.843.78.484.484,0,0,0,8.7.437Z" fill="currentColor"/>
    </g>
  </g>
</svg>
