<svg xmlns="http://www.w3.org/2000/svg" width="69.942" height="78.242" viewBox="0 0 69.942 78.242">
  <g id="updated" transform="translate(0 0)">
    <path id="Path_1100" data-name="Path 1100" d="M4.937,64.494A29.662,29.662,0,0,0,17.573,88.8a2.449,2.449,0,0,1,.125,3.933l-.036.029a2.441,2.441,0,0,1-2.909.091A34.6,34.6,0,0,1,0,64.494c0-19.025,15.748-34.47,34.734-34.632V34.8c-16.262.161-29.8,13.394-29.8,29.693Zm0,0" transform="translate(0 -25.299)" fill="#3ad976"/>
    <path id="Path_1101" data-name="Path 1101" d="M225.969.148l9.073,6.206a.837.837,0,0,1,0,1.382l-9.073,6.206a.837.837,0,0,1-1.31-.691V.839a.837.837,0,0,1,1.31-.691Zm0,0" transform="translate(-190.328 0)" fill="#3ad976"/>
    <path id="Path_1102" data-name="Path 1102" d="M260.334,95.852A29.662,29.662,0,0,0,247.7,71.542a2.449,2.449,0,0,1-.125-3.933l.036-.029a2.441,2.441,0,0,1,2.909-.091,34.594,34.594,0,0,1,14.753,28.363c0,19.025-15.721,34.469-34.708,34.632v-4.938c16.262-.161,29.771-13.393,29.771-29.693Zm0,0" transform="translate(-195.329 -56.806)" fill="#3ad976"/>
    <path id="Path_1103" data-name="Path 1103" d="M172.139,433.741l-9.073-6.206a.837.837,0,0,1,0-1.382l9.073-6.206a.837.837,0,0,1,1.31.691V433.05A.837.837,0,0,1,172.139,433.741Zm0,0" transform="translate(-137.838 -355.647)" fill="#3ad976"/>
    <path id="Path_1104" data-name="Path 1104" d="M150.954,192.153l-14.862,12.326-3.747,3.108a4.9,4.9,0,0,1-7.053-.833l-5.78-7.7a3.941,3.941,0,1,1,6.306-4.729l3.9,5.2.032-.026,16.172-13.412a3.941,3.941,0,0,1,5.03,6.068Zm0,0" transform="translate(-100.582 -156.88)" fill="#3ad976"/>
    <path id="Path_1105" data-name="Path 1105" d="M212.085,192.153l-14.862,12.326a19.965,19.965,0,0,1-6.34-4.981l16.172-13.412a3.941,3.941,0,1,1,5.03,6.068Zm0,0" transform="translate(-161.713 -156.881)" fill="#3ad976"/>
  </g>
</svg>
