<svg id="header_-_cart" data-name="header - cart" xmlns="http://www.w3.org/2000/svg" width="24" height="24" viewBox="0 0 24 24">
  <rect id="Rectangle_260" data-name="Rectangle 260" width="24" height="24" fill="currentColor" opacity="0" />
  <path id="cart" d="M130.082,128.262a3.141,3.141,0,0,1-2.923-4.287.257.257,0,0,0-.026-.237.266.266,0,0,0-.211-.113h-2.939a.246.246,0,0,0-.211.113.259.259,0,0,0-.026.237,3.145,3.145,0,1,1-5.105-1.122.253.253,0,0,0,.077-.185.258.258,0,0,0-.082-.185,3.973,3.973,0,0,1-1.225-2.5l-.576-6.361v-.01l-.226-3.337a.254.254,0,0,0-.257-.232h-1.328a.823.823,0,1,1,0-1.647h2.316a.827.827,0,0,1,.823.751l.226,3.322a.254.254,0,0,0,.257.232H130.72a2.739,2.739,0,0,1,.355.021,3.428,3.428,0,0,1,3.052,3.767l-.319,3.5a3.986,3.986,0,0,1-1.384,2.635.243.243,0,0,0-.087.18.256.256,0,0,0,.067.19,3.135,3.135,0,0,1-2.321,5.26Zm-9.269-1.652a1.487,1.487,0,1,0-.01,0Zm9.274,0a1.492,1.492,0,1,0,0-2.985h0a1.492,1.492,0,0,0-.01,2.985Zm-11.25-12.264a.256.256,0,0,0-.257.278l.473,5.208a2.426,2.426,0,0,0,2.336,2.136h8.43a2.422,2.422,0,0,0,2.336-2.136l.319-3.5a1.493,1.493,0,0,0,.01-.262,1.774,1.774,0,0,0-1.781-1.729h-.051Z" transform="translate(-112.173 -106.382)" fill="currentColor" />
</svg>
