<svg id="Component_106" data-name="Component 106" xmlns="http://www.w3.org/2000/svg" width="24" height="24" viewBox="0 0 24 24">
  <path id="Path_900" data-name="Path 900" d="M0,0H24V24H0Z" transform="translate(0 24) rotate(-90)" fill="currentColor" opacity="0"/>
  <g id="mail" transform="translate(2 2.8)">
    <path id="Path_1053" data-name="Path 1053" d="M12.145,40.194H4.671A4.676,4.676,0,0,1,0,35.523V31.434a4.676,4.676,0,0,1,4.671-4.671h7.474a4.676,4.676,0,0,1,4.671,4.671v4.089a4.676,4.676,0,0,1-4.671,4.671ZM4.671,28.32a3.118,3.118,0,0,0-3.114,3.114v4.089a3.118,3.118,0,0,0,3.114,3.114h7.474a3.118,3.118,0,0,0,3.114-3.114V31.434a3.118,3.118,0,0,0-3.114-3.114Zm15.259,4.4V26.646a4.676,4.676,0,0,0-4.671-4.671H7.785a4.676,4.676,0,0,0-3.838,2.008.779.779,0,0,0,1.279.889,3.118,3.118,0,0,1,2.559-1.34h7.474a3.118,3.118,0,0,1,3.114,3.114v6.072a.779.779,0,0,0,1.557,0Z" transform="translate(0 -21.975)" fill="currentColor"/>
  </g>
</svg>
