<svg id="Component_105" data-name="Component 105" xmlns="http://www.w3.org/2000/svg" width="24" height="24" viewBox="0 0 24 24">
  <path id="Path_900" data-name="Path 900" d="M0,0H24V24H0Z" transform="translate(0 24) rotate(-90)" fill="currentColor" opacity="0"/>
  <g id="stayhome" transform="translate(1.7 1.663)">
    <path id="Path_1048" data-name="Path 1048" d="M15.769,20.631H4.827A4.833,4.833,0,0,1,0,15.8V9.034A4.855,4.855,0,0,1,1.9,5.2L7.371,1.023a4.839,4.839,0,0,1,5.855,0L18.7,5.2a4.855,4.855,0,0,1,1.9,3.838V15.8A4.833,4.833,0,0,1,15.769,20.631ZM10.3,1.645A3.214,3.214,0,0,0,8.347,2.3L2.876,6.475A3.237,3.237,0,0,0,1.609,9.034V15.8a3.222,3.222,0,0,0,3.218,3.218H15.769A3.222,3.222,0,0,0,18.987,15.8V9.034a3.237,3.237,0,0,0-1.267-2.559L12.25,2.3A3.215,3.215,0,0,0,10.3,1.645Z" fill="currentColor"/>
  </g>
</svg>
