<svg id="Component_107" data-name="Component 107" xmlns="http://www.w3.org/2000/svg" width="24" height="24" viewBox="0 0 24 24">
  <g id="Group_2881" data-name="Group 2881" transform="translate(8472 5299)" opacity="0">
    <path id="Path_900" data-name="Path 900" d="M0,0H24V24H0Z" transform="translate(-8472 -5275) rotate(-90)" fill="currentColor" opacity="0.86"/>
  </g>
  <g id="user" transform="translate(3.518 1.6)">
    <g id="Group_2878" data-name="Group 2878" transform="translate(0 12.712)">
      <path id="Path_1050" data-name="Path 1050" d="M74.336,318.283a.82.82,0,0,1-.82-.82,5.829,5.829,0,0,0-5.823-5.823h-1.23a5.829,5.829,0,0,0-5.823,5.823.82.82,0,1,1-1.64,0A7.472,7.472,0,0,1,66.463,310h1.23a7.472,7.472,0,0,1,7.463,7.463A.82.82,0,0,1,74.336,318.283Z" transform="translate(-59 -310)" fill="currentColor"/>
    </g>
    <g id="Group_2879" data-name="Group 2879" transform="translate(2.46)">
      <path id="Path_1051" data-name="Path 1051" d="M124.536,11.072a5.536,5.536,0,1,1,5.536-5.536A5.542,5.542,0,0,1,124.536,11.072Zm0-9.431a3.9,3.9,0,1,0,3.9,3.9A3.9,3.9,0,0,0,124.536,1.64Z" transform="translate(-119)" fill="currentColor"/>
    </g>
  </g>
</svg>
