<svg xmlns="http://www.w3.org/2000/svg" width="20.669" height="13.542" viewBox="0 0 20.669 13.542">
  <g id="bahrain" transform="translate(0 0)">
    <path id="Path_561" data-name="Path 561" d="M1.548,101.813H5.7l2.851-.846L5.7,100.121l2.851-.846L5.7,98.428l2.851-.846L5.7,96.735l2.851-.846L5.7,95.043,8.552,94.2,5.7,93.35,8.552,92.5,5.7,91.657l2.851-.846L5.7,89.965l2.851-.846L5.7,88.272H1.548A1.548,1.548,0,0,0,0,89.82v10.445A1.548,1.548,0,0,0,1.548,101.813Z" transform="translate(0 -88.272)" fill="#f5f5f5"/>
    <path id="Path_562" data-name="Path 562" d="M141.241,89.969l2.851.846-2.851.846,2.851.846-2.851.846,2.851.846-2.851.846,2.851.846-2.851.846,2.851.846-2.851.846,2.851.846-2.851.846,2.851.846-2.851.846H154.66a1.548,1.548,0,0,0,1.548-1.548V89.824a1.548,1.548,0,0,0-1.548-1.548H141.241l2.851.846Z" transform="translate(-135.539 -88.276)" fill="#ff4b55"/>
  </g>
</svg>
