<svg id="united-states" xmlns="http://www.w3.org/2000/svg" width="20.877" height="13.678" viewBox="0 0 20.877 13.678">
  <path id="Path_563" data-name="Path 563" d="M19.313,88.276H1.564A1.563,1.563,0,0,0,0,89.84V100.39a1.564,1.564,0,0,0,1.564,1.564h17.75a1.564,1.564,0,0,0,1.564-1.564V89.84A1.563,1.563,0,0,0,19.313,88.276Z" transform="translate(0 -88.276)" fill="#f5f5f5"/>
  <g id="Group_1547" data-name="Group 1547" transform="translate(0 0)">
    <path id="Path_564" data-name="Path 564" d="M2.109,89.328h20.7a1.564,1.564,0,0,0-1.477-1.052H3.587A1.564,1.564,0,0,0,2.109,89.328Z" transform="translate(-2.023 -88.276)" fill="#ff4b55"/>
    <rect id="Rectangle_187" data-name="Rectangle 187" width="20.877" height="1.052" transform="translate(0 4.209)" fill="#ff4b55"/>
    <rect id="Rectangle_188" data-name="Rectangle 188" width="20.877" height="1.052" transform="translate(0 2.104)" fill="#ff4b55"/>
    <path id="Path_565" data-name="Path 565" d="M0,243.79a.36.36,0,0,0,.36.36H20.877V243.1H0Z" transform="translate(0 -236.785)" fill="#ff4b55"/>
    <rect id="Rectangle_189" data-name="Rectangle 189" width="20.877" height="1.052" transform="translate(0 10.522)" fill="#ff4b55"/>
    <path id="Path_566" data-name="Path 566" d="M22.814,397.92H2.109a1.564,1.564,0,0,0,1.478,1.052h17.75A1.564,1.564,0,0,0,22.814,397.92Z" transform="translate(-2.023 -385.294)" fill="#ff4b55"/>
    <rect id="Rectangle_190" data-name="Rectangle 190" width="20.877" height="1.052" transform="translate(0 8.417)" fill="#ff4b55"/>
  </g>
  <path id="Path_567" data-name="Path 567" d="M.36,95.64h9a.36.36,0,0,0,.36-.36V88.635a.36.36,0,0,0-.36-.36h-7.8A1.564,1.564,0,0,0,0,89.839V95.28A.36.36,0,0,0,.36,95.64Z" transform="translate(0 -88.275)" fill="#41479b"/>
  <g id="Group_1548" data-name="Group 1548" transform="translate(0.581 0.803)">
    <path id="Path_568" data-name="Path 568" d="M14.682,107.991l.08.239.252,0a.034.034,0,0,1,.02.061l-.2.15.076.24a.034.034,0,0,1-.052.038l-.2-.146-.2.146a.034.034,0,0,1-.052-.038l.076-.24-.2-.15a.034.034,0,0,1,.02-.061l.252,0,.08-.239A.034.034,0,0,1,14.682,107.991Z" transform="translate(-14.253 -107.968)" fill="#f5f5f5"/>
    <path id="Path_569" data-name="Path 569" d="M14.682,138.646l.08.239.252,0a.034.034,0,0,1,.02.061l-.2.15.076.24a.034.034,0,0,1-.052.038l-.2-.146-.2.146a.034.034,0,0,1-.052-.038l.076-.24-.2-.15a.034.034,0,0,1,.02-.061l.252,0,.08-.239A.034.034,0,0,1,14.682,138.646Z" transform="translate(-14.253 -137.373)" fill="#f5f5f5"/>
    <path id="Path_570" data-name="Path 570" d="M14.682,169.3l.08.239.252,0a.034.034,0,0,1,.02.061l-.2.15.076.24a.034.034,0,0,1-.052.038l-.2-.146-.2.146a.034.034,0,0,1-.052-.038l.076-.24-.2-.15a.034.034,0,0,1,.02-.061l.252,0,.08-.239A.034.034,0,0,1,14.682,169.3Z" transform="translate(-14.253 -166.777)" fill="#f5f5f5"/>
    <path id="Path_571" data-name="Path 571" d="M14.682,199.954l.08.239.252,0a.034.034,0,0,1,.02.061l-.2.15.076.24a.034.034,0,0,1-.052.038l-.2-.146-.2.146a.034.034,0,0,1-.052-.038l.076-.24-.2-.15a.034.034,0,0,1,.02-.061l.252,0,.08-.239A.034.034,0,0,1,14.682,199.954Z" transform="translate(-14.253 -196.181)" fill="#f5f5f5"/>
    <path id="Path_572" data-name="Path 572" d="M14.682,230.609l.08.239.252,0a.034.034,0,0,1,.02.061l-.2.15.076.24a.034.034,0,0,1-.052.038l-.2-.146-.2.146a.034.034,0,0,1-.052-.038l.076-.24-.2-.15a.034.034,0,0,1,.02-.061l.252,0,.08-.239A.034.034,0,0,1,14.682,230.609Z" transform="translate(-14.253 -225.586)" fill="#f5f5f5"/>
    <path id="Path_573" data-name="Path 573" d="M38.475,123.021l.08.239.252,0a.034.034,0,0,1,.02.061l-.2.15.076.24a.034.034,0,0,1-.052.038l-.2-.146-.2.146a.034.034,0,0,1-.052-.038l.076-.24-.2-.15a.034.034,0,0,1,.02-.061l.252,0,.08-.239A.034.034,0,0,1,38.475,123.021Z" transform="translate(-37.075 -122.385)" fill="#f5f5f5"/>
    <path id="Path_574" data-name="Path 574" d="M38.475,153.675l.08.239.252,0a.034.034,0,0,1,.02.061l-.2.15.076.24a.034.034,0,0,1-.052.038l-.2-.146-.2.146a.034.034,0,0,1-.052-.038l.076-.24-.2-.15a.034.034,0,0,1,.02-.061l.252,0,.08-.239A.034.034,0,0,1,38.475,153.675Z" transform="translate(-37.075 -151.789)" fill="#f5f5f5"/>
    <path id="Path_575" data-name="Path 575" d="M38.475,184.329l.08.239.252,0a.034.034,0,0,1,.02.061l-.2.15.076.24a.034.034,0,0,1-.052.038l-.2-.146-.2.146a.034.034,0,0,1-.052-.038l.076-.24-.2-.15a.034.034,0,0,1,.02-.061l.252,0,.08-.239A.034.034,0,0,1,38.475,184.329Z" transform="translate(-37.075 -181.193)" fill="#f5f5f5"/>
    <path id="Path_576" data-name="Path 576" d="M38.475,214.984l.08.239.252,0a.034.034,0,0,1,.02.061l-.2.15.076.24a.034.034,0,0,1-.052.038l-.2-.146-.2.146a.034.034,0,0,1-.052-.038l.076-.24-.2-.15a.034.034,0,0,1,.02-.061l.252,0,.08-.239A.034.034,0,0,1,38.475,214.984Z" transform="translate(-37.075 -210.598)" fill="#f5f5f5"/>
    <path id="Path_577" data-name="Path 577" d="M62.268,107.991l.08.239.252,0a.034.034,0,0,1,.02.061l-.2.15.076.24a.034.034,0,0,1-.052.038l-.2-.146-.2.146a.034.034,0,0,1-.052-.038l.076-.24-.2-.15a.034.034,0,0,1,.02-.061l.252,0,.08-.239A.034.034,0,0,1,62.268,107.991Z" transform="translate(-59.898 -107.968)" fill="#f5f5f5"/>
    <path id="Path_578" data-name="Path 578" d="M62.268,138.646l.08.239.252,0a.034.034,0,0,1,.02.061l-.2.15.076.24a.034.034,0,0,1-.052.038l-.2-.146-.2.146a.034.034,0,0,1-.052-.038l.076-.24-.2-.15a.034.034,0,0,1,.02-.061l.252,0,.08-.239A.034.034,0,0,1,62.268,138.646Z" transform="translate(-59.898 -137.373)" fill="#f5f5f5"/>
    <path id="Path_579" data-name="Path 579" d="M62.268,169.3l.08.239.252,0a.034.034,0,0,1,.02.061l-.2.15.076.24a.034.034,0,0,1-.052.038l-.2-.146-.2.146a.034.034,0,0,1-.052-.038l.076-.24-.2-.15a.034.034,0,0,1,.02-.061l.252,0,.08-.239A.034.034,0,0,1,62.268,169.3Z" transform="translate(-59.898 -166.777)" fill="#f5f5f5"/>
    <path id="Path_580" data-name="Path 580" d="M62.268,199.954l.08.239.252,0a.034.034,0,0,1,.02.061l-.2.15.076.24a.034.034,0,0,1-.052.038l-.2-.146-.2.146a.034.034,0,0,1-.052-.038l.076-.24-.2-.15a.034.034,0,0,1,.02-.061l.252,0,.08-.239A.034.034,0,0,1,62.268,199.954Z" transform="translate(-59.898 -196.181)" fill="#f5f5f5"/>
    <path id="Path_581" data-name="Path 581" d="M62.268,230.609l.08.239.252,0a.034.034,0,0,1,.02.061l-.2.15.076.24a.034.034,0,0,1-.052.038l-.2-.146-.2.146a.034.034,0,0,1-.052-.038l.076-.24-.2-.15a.034.034,0,0,1,.02-.061l.252,0,.08-.239A.034.034,0,0,1,62.268,230.609Z" transform="translate(-59.898 -225.586)" fill="#f5f5f5"/>
    <path id="Path_582" data-name="Path 582" d="M86.062,123.021l.08.239.252,0a.034.034,0,0,1,.02.061l-.2.15.076.24a.034.034,0,0,1-.052.038l-.2-.146-.2.146a.034.034,0,0,1-.052-.038l.076-.24-.2-.15a.034.034,0,0,1,.02-.061l.252,0,.08-.239A.034.034,0,0,1,86.062,123.021Z" transform="translate(-82.722 -122.385)" fill="#f5f5f5"/>
    <path id="Path_583" data-name="Path 583" d="M86.062,153.675l.08.239.252,0a.034.034,0,0,1,.02.061l-.2.15.076.24a.034.034,0,0,1-.052.038l-.2-.146-.2.146a.034.034,0,0,1-.052-.038l.076-.24-.2-.15a.034.034,0,0,1,.02-.061l.252,0,.08-.239A.034.034,0,0,1,86.062,153.675Z" transform="translate(-82.722 -151.789)" fill="#f5f5f5"/>
    <path id="Path_584" data-name="Path 584" d="M86.062,184.329l.08.239.252,0a.034.034,0,0,1,.02.061l-.2.15.076.24a.034.034,0,0,1-.052.038l-.2-.146-.2.146a.034.034,0,0,1-.052-.038l.076-.24-.2-.15a.034.034,0,0,1,.02-.061l.252,0,.08-.239A.034.034,0,0,1,86.062,184.329Z" transform="translate(-82.722 -181.193)" fill="#f5f5f5"/>
    <path id="Path_585" data-name="Path 585" d="M86.062,214.984l.08.239.252,0a.034.034,0,0,1,.02.061l-.2.15.076.24a.034.034,0,0,1-.052.038l-.2-.146-.2.146a.034.034,0,0,1-.052-.038l.076-.24-.2-.15a.034.034,0,0,1,.02-.061l.252,0,.08-.239A.034.034,0,0,1,86.062,214.984Z" transform="translate(-82.722 -210.598)" fill="#f5f5f5"/>
    <path id="Path_586" data-name="Path 586" d="M109.854,107.991l.08.239.252,0a.034.034,0,0,1,.02.061l-.2.15.076.24a.034.034,0,0,1-.052.038l-.2-.146-.2.146a.034.034,0,0,1-.052-.038l.076-.24-.2-.15a.034.034,0,0,1,.02-.061l.252,0,.08-.239A.034.034,0,0,1,109.854,107.991Z" transform="translate(-105.544 -107.968)" fill="#f5f5f5"/>
    <path id="Path_587" data-name="Path 587" d="M109.854,138.646l.08.239.252,0a.034.034,0,0,1,.02.061l-.2.15.076.24a.034.034,0,0,1-.052.038l-.2-.146-.2.146a.034.034,0,0,1-.052-.038l.076-.24-.2-.15a.034.034,0,0,1,.02-.061l.252,0,.08-.239A.034.034,0,0,1,109.854,138.646Z" transform="translate(-105.544 -137.373)" fill="#f5f5f5"/>
    <path id="Path_588" data-name="Path 588" d="M109.854,169.3l.08.239.252,0a.034.034,0,0,1,.02.061l-.2.15.076.24a.034.034,0,0,1-.052.038l-.2-.147-.2.146a.034.034,0,0,1-.052-.038l.076-.24-.2-.15a.034.034,0,0,1,.02-.061l.252,0,.08-.239A.034.034,0,0,1,109.854,169.3Z" transform="translate(-105.544 -166.777)" fill="#f5f5f5"/>
    <path id="Path_589" data-name="Path 589" d="M109.854,199.954l.08.239.252,0a.034.034,0,0,1,.02.061l-.2.15.076.24a.034.034,0,0,1-.052.038l-.2-.146-.2.146a.034.034,0,0,1-.052-.038l.076-.24-.2-.15a.034.034,0,0,1,.02-.061l.252,0,.08-.239A.034.034,0,0,1,109.854,199.954Z" transform="translate(-105.544 -196.181)" fill="#f5f5f5"/>
    <path id="Path_590" data-name="Path 590" d="M109.854,230.609l.08.239.252,0a.034.034,0,0,1,.02.061l-.2.15.076.24a.034.034,0,0,1-.052.038l-.2-.146-.2.146a.034.034,0,0,1-.052-.038l.076-.24-.2-.15a.034.034,0,0,1,.02-.061l.252,0,.08-.239A.034.034,0,0,1,109.854,230.609Z" transform="translate(-105.544 -225.586)" fill="#f5f5f5"/>
    <path id="Path_591" data-name="Path 591" d="M133.648,123.021l.08.239.252,0a.034.034,0,0,1,.02.061l-.2.15.076.24a.034.034,0,0,1-.052.038l-.2-.146-.2.146a.034.034,0,0,1-.052-.038l.076-.24-.2-.15a.034.034,0,0,1,.02-.061l.252,0,.08-.239A.034.034,0,0,1,133.648,123.021Z" transform="translate(-128.368 -122.385)" fill="#f5f5f5"/>
    <path id="Path_592" data-name="Path 592" d="M133.648,153.675l.08.239.252,0a.034.034,0,0,1,.02.061l-.2.15.076.24a.034.034,0,0,1-.052.038l-.2-.146-.2.146a.034.034,0,0,1-.052-.038l.076-.24-.2-.15a.034.034,0,0,1,.02-.061l.252,0,.08-.239A.034.034,0,0,1,133.648,153.675Z" transform="translate(-128.368 -151.789)" fill="#f5f5f5"/>
    <path id="Path_593" data-name="Path 593" d="M133.648,184.329l.08.239.252,0a.034.034,0,0,1,.02.061l-.2.15.076.24a.034.034,0,0,1-.052.038l-.2-.146-.2.146a.034.034,0,0,1-.052-.038l.076-.24-.2-.15a.034.034,0,0,1,.02-.061l.252,0,.08-.239A.034.034,0,0,1,133.648,184.329Z" transform="translate(-128.368 -181.193)" fill="#f5f5f5"/>
    <path id="Path_594" data-name="Path 594" d="M133.648,214.984l.08.239.252,0a.034.034,0,0,1,.02.061l-.2.15.076.24a.034.034,0,0,1-.052.038l-.2-.146-.2.146a.034.034,0,0,1-.052-.038l.076-.24-.2-.15a.034.034,0,0,1,.02-.061l.252,0,.08-.239A.034.034,0,0,1,133.648,214.984Z" transform="translate(-128.368 -210.598)" fill="#f5f5f5"/>
    <path id="Path_595" data-name="Path 595" d="M157.442,107.991l.08.239.252,0a.034.034,0,0,1,.02.061l-.2.15.076.24a.034.034,0,0,1-.052.038l-.2-.146-.2.146a.034.034,0,0,1-.052-.038l.076-.24-.2-.15a.034.034,0,0,1,.02-.061l.252,0,.08-.239A.034.034,0,0,1,157.442,107.991Z" transform="translate(-151.192 -107.968)" fill="#f5f5f5"/>
    <path id="Path_596" data-name="Path 596" d="M157.442,138.646l.08.239.252,0a.034.034,0,0,1,.02.061l-.2.15.076.24a.034.034,0,0,1-.052.038l-.2-.146-.2.146a.034.034,0,0,1-.052-.038l.076-.24-.2-.15a.034.034,0,0,1,.02-.061l.252,0,.08-.239A.034.034,0,0,1,157.442,138.646Z" transform="translate(-151.192 -137.373)" fill="#f5f5f5"/>
    <path id="Path_597" data-name="Path 597" d="M157.442,169.3l.08.239.252,0a.034.034,0,0,1,.02.061l-.2.15.076.24a.034.034,0,0,1-.052.038l-.2-.146-.2.146a.034.034,0,0,1-.052-.038l.076-.24-.2-.15a.034.034,0,0,1,.02-.061l.252,0,.08-.239A.034.034,0,0,1,157.442,169.3Z" transform="translate(-151.192 -166.777)" fill="#f5f5f5"/>
    <path id="Path_598" data-name="Path 598" d="M157.442,199.954l.08.239.252,0a.034.034,0,0,1,.02.061l-.2.15.076.24a.034.034,0,0,1-.052.038l-.2-.146-.2.146a.034.034,0,0,1-.052-.038l.076-.24-.2-.15a.034.034,0,0,1,.02-.061l.252,0,.08-.239A.034.034,0,0,1,157.442,199.954Z" transform="translate(-151.192 -196.181)" fill="#f5f5f5"/>
    <path id="Path_599" data-name="Path 599" d="M157.442,230.609l.08.239.252,0a.034.034,0,0,1,.02.061l-.2.15.076.24a.034.034,0,0,1-.052.038l-.2-.146-.2.146a.034.034,0,0,1-.052-.038l.076-.24-.2-.15a.034.034,0,0,1,.02-.061l.252,0,.08-.239A.034.034,0,0,1,157.442,230.609Z" transform="translate(-151.192 -225.586)" fill="#f5f5f5"/>
    <path id="Path_600" data-name="Path 600" d="M181.235,123.021l.08.239.252,0a.034.034,0,0,1,.02.061l-.2.15.076.24a.034.034,0,0,1-.052.038l-.2-.146-.2.146a.034.034,0,0,1-.052-.038l.076-.24-.2-.15a.034.034,0,0,1,.02-.061l.252,0,.08-.239A.034.034,0,0,1,181.235,123.021Z" transform="translate(-174.015 -122.385)" fill="#f5f5f5"/>
    <path id="Path_601" data-name="Path 601" d="M181.235,153.675l.08.239.252,0a.034.034,0,0,1,.02.061l-.2.15.076.24a.034.034,0,0,1-.052.038l-.2-.146-.2.146a.034.034,0,0,1-.052-.038l.076-.24-.2-.15a.034.034,0,0,1,.02-.061l.252,0,.08-.239A.034.034,0,0,1,181.235,153.675Z" transform="translate(-174.015 -151.789)" fill="#f5f5f5"/>
    <path id="Path_602" data-name="Path 602" d="M181.235,184.329l.08.239.252,0a.034.034,0,0,1,.02.061l-.2.15.076.24a.034.034,0,0,1-.052.038l-.2-.146-.2.146a.034.034,0,0,1-.052-.038l.076-.24-.2-.15a.034.034,0,0,1,.02-.061l.252,0,.08-.239A.034.034,0,0,1,181.235,184.329Z" transform="translate(-174.015 -181.193)" fill="#f5f5f5"/>
    <path id="Path_603" data-name="Path 603" d="M181.235,214.984l.08.239.252,0a.034.034,0,0,1,.02.061l-.2.15.076.24a.034.034,0,0,1-.052.038l-.2-.146-.2.146a.034.034,0,0,1-.052-.038l.076-.24-.2-.15a.034.034,0,0,1,.02-.061l.252,0,.08-.239A.034.034,0,0,1,181.235,214.984Z" transform="translate(-174.015 -210.598)" fill="#f5f5f5"/>
    <path id="Path_604" data-name="Path 604" d="M205.029,107.991l.08.239.252,0a.034.034,0,0,1,.02.061l-.2.15.076.24a.034.034,0,0,1-.052.038l-.2-.146-.2.146a.034.034,0,0,1-.052-.038l.076-.24-.2-.15a.034.034,0,0,1,.02-.061l.252,0,.08-.239A.034.034,0,0,1,205.029,107.991Z" transform="translate(-196.838 -107.968)" fill="#f5f5f5"/>
    <path id="Path_605" data-name="Path 605" d="M205.029,138.646l.08.239.252,0a.034.034,0,0,1,.02.061l-.2.15.076.24a.034.034,0,0,1-.052.038l-.2-.146-.2.146a.034.034,0,0,1-.052-.038l.076-.24-.2-.15a.034.034,0,0,1,.02-.061l.252,0,.08-.239A.034.034,0,0,1,205.029,138.646Z" transform="translate(-196.838 -137.373)" fill="#f5f5f5"/>
    <path id="Path_606" data-name="Path 606" d="M205.029,169.3l.08.239.252,0a.034.034,0,0,1,.02.061l-.2.15.076.24a.034.034,0,0,1-.052.038l-.2-.146-.2.146a.034.034,0,0,1-.052-.038l.076-.24-.2-.15a.034.034,0,0,1,.02-.061l.252,0,.08-.239A.034.034,0,0,1,205.029,169.3Z" transform="translate(-196.838 -166.777)" fill="#f5f5f5"/>
    <path id="Path_607" data-name="Path 607" d="M205.029,199.954l.08.239.252,0a.034.034,0,0,1,.02.061l-.2.15.076.24a.034.034,0,0,1-.052.038l-.2-.146-.2.146a.034.034,0,0,1-.052-.038l.076-.24-.2-.15a.034.034,0,0,1,.02-.061l.252,0,.08-.239A.034.034,0,0,1,205.029,199.954Z" transform="translate(-196.838 -196.181)" fill="#f5f5f5"/>
    <path id="Path_608" data-name="Path 608" d="M205.029,230.609l.08.239.252,0a.034.034,0,0,1,.02.061l-.2.15.076.24a.034.034,0,0,1-.052.038l-.2-.146-.2.146a.034.034,0,0,1-.052-.038l.076-.24-.2-.15a.034.034,0,0,1,.02-.061l.252,0,.08-.239A.034.034,0,0,1,205.029,230.609Z" transform="translate(-196.838 -225.586)" fill="#f5f5f5"/>
  </g>
</svg>
